<svg width="22" height="24" viewBox="0 0 22 24" fill="none" xmlns="http://www.w3.org/2000/svg">
<path id="Fingerprint" d="M17.7475 2.964C17.6516 2.964 17.5558 2.94 17.4719 2.892C15.1707 1.704 13.1811 1.2 10.784 1.2C8.42294 1.2 6.1697 1.764 4.12021 2.892C3.83256 3.048 3.473 2.94 3.30521 2.652C3.1494 2.364 3.25727 1.992 3.54492 1.836C5.77418 0.6 8.21919 0 10.784 0C13.3489 0 15.5782 0.564 18.0232 1.8C18.3228 1.98 18.4307 2.34 18.2749 2.628C18.167 2.844 17.9752 2.964 17.7475 2.964ZM0.596527 9.264C0.476674 9.264 0.356821 9.228 0.248953 9.156C-0.00273861 8.964 -0.086636 8.592 0.105129 8.316C1.29168 6.636 2.80183 5.316 4.59962 4.392C8.38698 2.448 13.1811 2.436 16.9565 4.38C18.7543 5.304 20.2644 6.6 21.451 8.28C21.6427 8.544 21.5708 8.928 21.3072 9.12C21.0315 9.312 20.6599 9.252 20.4682 9C19.3895 7.464 18.0232 6.276 16.4052 5.448C12.9654 3.684 8.56676 3.684 5.13896 5.46C3.50896 6.3 2.14263 7.5 1.06395 9C0.968072 9.18 0.788292 9.264 0.596527 9.264ZM8.08735 23.748C7.93154 23.748 7.78772 23.688 7.66786 23.568C6.62514 22.524 6.06183 21.852 5.25882 20.4C4.43183 18.924 4.00036 17.124 4.00036 15.192C4.00036 11.628 7.04463 8.724 10.784 8.724C14.5235 8.724 17.5677 11.628 17.5677 15.192C17.5677 15.3511 17.5046 15.5037 17.3922 15.6163C17.2798 15.7288 17.1274 15.792 16.9685 15.792C16.8095 15.792 16.6571 15.7288 16.5447 15.6163C16.4323 15.5037 16.3692 15.3511 16.3692 15.192C16.3692 12.288 13.8643 9.924 10.784 9.924C7.70382 9.924 5.19889 12.288 5.19889 15.192C5.19889 16.92 5.58242 18.516 6.31352 19.8C7.08058 21.192 7.60794 21.78 8.53081 22.716C8.75853 22.956 8.75853 23.328 8.53081 23.568C8.38698 23.688 8.24316 23.748 8.08735 23.748ZM16.6808 21.528C15.2546 21.528 13.9961 21.168 12.9654 20.46C11.1796 19.248 10.1129 17.28 10.1129 15.192C10.1129 15.0329 10.176 14.8803 10.2884 14.7677C10.4008 14.6552 10.5532 14.592 10.7121 14.592C10.8711 14.592 11.0235 14.6552 11.1359 14.7677C11.2483 14.8803 11.3114 15.0329 11.3114 15.192C11.3114 16.884 12.1743 18.48 13.6366 19.464C14.4875 20.04 15.4823 20.316 16.6808 20.316C16.9685 20.316 17.4479 20.28 17.9273 20.196C18.2509 20.136 18.5745 20.352 18.6224 20.688C18.6824 21 18.4666 21.324 18.131 21.384C17.4479 21.516 16.8486 21.528 16.6808 21.528ZM14.2718 24C14.2238 24 14.1639 24 14.116 24C12.2103 23.448 10.9638 22.74 9.65743 21.456C7.97948 19.8 7.05661 17.568 7.05661 15.192C7.05661 13.248 8.71059 11.664 10.7481 11.664C12.7856 11.664 14.4396 13.248 14.4396 15.192C14.4396 16.476 15.5782 17.52 16.9325 17.52C18.3108 17.52 19.4255 16.476 19.4255 15.192C19.4255 10.668 15.5302 6.996 10.7361 6.996C7.33228 6.996 4.19212 8.892 2.81381 11.832C2.34638 12.804 2.10668 13.944 2.10668 15.192C2.10668 16.128 2.19057 17.604 2.90969 19.524C3.02955 19.836 2.87374 20.184 2.56212 20.292C2.2505 20.4 1.90293 20.244 1.79506 19.944C1.19579 18.372 0.920131 16.8 0.920131 15.192C0.920131 13.752 1.19579 12.444 1.73513 11.304C3.32918 7.956 6.86485 5.784 10.7361 5.784C16.1774 5.784 20.624 9.996 20.624 15.18C20.624 17.124 18.97 18.708 16.9325 18.708C14.895 18.708 13.241 17.124 13.241 15.18C13.241 13.896 12.1264 12.852 10.7481 12.852C9.36978 12.852 8.25515 13.896 8.25515 15.18C8.25515 17.232 9.04618 19.152 10.4964 20.592C11.635 21.72 12.7257 22.344 14.4156 22.8C14.7392 22.896 14.919 23.232 14.8351 23.544C14.7752 23.82 14.5235 24 14.2718 24Z" fill="black"/>
</svg>
