<svg width="28" height="21" viewBox="0 0 28 21" fill="none" xmlns="http://www.w3.org/2000/svg">
<g id="Flags">
<rect id="Mask" y="0.5" width="28" height="20" rx="2" fill="white"/>
<mask id="mask0_1869_1062" style="mask-type:luminance" maskUnits="userSpaceOnUse" x="0" y="0" width="28" height="21">
<rect id="Mask_2" y="0.5" width="28" height="20" rx="2" fill="white"/>
</mask>
<g mask="url(#mask0_1869_1062)">
<path id="Rectangle 2" fill-rule="evenodd" clip-rule="evenodd" d="M0 5.83333H28V0.5H0V5.83333Z" fill="#222222"/>
<path id="Rectangle 2_2" fill-rule="evenodd" clip-rule="evenodd" d="M0 20.5H28V15.1667H0V20.5Z" fill="#018301"/>
<path id="Rectangle 2_3" fill-rule="evenodd" clip-rule="evenodd" d="M0 15.1667H28V5.83334H0V15.1667Z" fill="white"/>
<path id="Rectangle 2 Copy 4" fill-rule="evenodd" clip-rule="evenodd" d="M0 13.8333H28V7.16666H0V13.8333Z" fill="#DC0808"/>
<g id="Oval 225">
<path id="Mask_3" fill-rule="evenodd" clip-rule="evenodd" d="M14.0003 17.1666C15.3337 17.1666 17.3337 14.5501 17.3337 10.5C17.3337 6.44989 15.3337 3.83331 14.0003 3.83331C12.667 3.83331 10.667 6.44989 10.667 10.5C10.667 14.5501 12.667 17.1666 14.0003 17.1666Z" fill="#BC0000"/>
<mask id="mask1_1869_1062" style="mask-type:luminance" maskUnits="userSpaceOnUse" x="10" y="3" width="8" height="15">
<path id="Mask_4" fill-rule="evenodd" clip-rule="evenodd" d="M14.0003 17.1666C15.3337 17.1666 17.3337 14.5501 17.3337 10.5C17.3337 6.44989 15.3337 3.83331 14.0003 3.83331C12.667 3.83331 10.667 6.44989 10.667 10.5C10.667 14.5501 12.667 17.1666 14.0003 17.1666Z" fill="white"/>
</mask>
<g mask="url(#mask1_1869_1062)">
<path id="Mask Copy" fill-rule="evenodd" clip-rule="evenodd" d="M8.66732 17.8333C10.5083 17.8333 12.0007 14.55 12.0007 10.5C12.0007 6.44987 10.5083 3.16663 8.66732 3.16663C6.82637 3.16663 5.33398 6.44987 5.33398 10.5C5.33398 14.55 6.82637 17.8333 8.66732 17.8333Z" fill="#222222"/>
<path id="Mask Copy 2" fill-rule="evenodd" clip-rule="evenodd" d="M19.3333 17.8333C21.1743 17.8333 22.6667 14.55 22.6667 10.5C22.6667 6.44987 21.1743 3.16663 19.3333 3.16663C17.4924 3.16663 16 6.44987 16 10.5C16 14.55 17.4924 17.8333 19.3333 17.8333Z" fill="#222222"/>
<g id="Oval 228" filter="url(#filter0_d_1869_1062)">
<path fill-rule="evenodd" clip-rule="evenodd" d="M14.0007 8.49996C14.3688 8.49996 14.6673 7.30605 14.6673 5.83329C14.6673 4.36053 14.3688 3.16663 14.0007 3.16663C13.6325 3.16663 13.334 4.36053 13.334 5.83329C13.334 7.30605 13.6325 8.49996 14.0007 8.49996ZM14.0007 12.5C14.3688 12.5 14.6673 11.6045 14.6673 10.5C14.6673 9.39539 14.3688 8.49996 14.0007 8.49996C13.6325 8.49996 13.334 9.39539 13.334 10.5C13.334 11.6045 13.6325 12.5 14.0007 12.5ZM14.0007 12.5C13.6325 12.5 13.334 13.6939 13.334 15.1666C13.334 16.6394 13.6325 17.8333 14.0007 17.8333C14.3688 17.8333 14.6673 16.6394 14.6673 15.1666C14.6673 13.6939 14.3688 12.5 14.0007 12.5Z" fill="url(#paint0_linear_1869_1062)"/>
</g>
</g>
</g>
</g>
</g>
<defs>
<filter id="filter0_d_1869_1062" x="13.334" y="3.16663" width="1.33301" height="15.6667" filterUnits="userSpaceOnUse" color-interpolation-filters="sRGB">
<feFlood flood-opacity="0" result="BackgroundImageFix"/>
<feColorMatrix in="SourceAlpha" type="matrix" values="0 0 0 0 0 0 0 0 0 0 0 0 0 0 0 0 0 0 127 0" result="hardAlpha"/>
<feOffset dy="1"/>
<feColorMatrix type="matrix" values="0 0 0 0 0 0 0 0 0 0 0 0 0 0 0 0 0 0 0.06 0"/>
<feBlend mode="normal" in2="BackgroundImageFix" result="effect1_dropShadow_1869_1062"/>
<feBlend mode="normal" in="SourceGraphic" in2="effect1_dropShadow_1869_1062" result="shape"/>
</filter>
<linearGradient id="paint0_linear_1869_1062" x1="13.334" y1="3.16663" x2="13.334" y2="17.8333" gradientUnits="userSpaceOnUse">
<stop stop-color="white"/>
<stop offset="1" stop-color="#F0F0F0"/>
</linearGradient>
</defs>
</svg>
