<svg width="187" height="186" viewBox="0 0 187 186" fill="none" xmlns="http://www.w3.org/2000/svg">
<g id="Illustration">
<g id="Group 143">
<g id="Group">
<path id="Vector" d="M63.2568 51.6874L43.3746 111.736L85.4356 158.979L105.319 98.9346L63.2568 51.6874Z" fill="#EA004E"/>
<path id="Vector_2" d="M167.264 86.1259L147.383 146.172L85.4358 158.979L105.32 98.9346L167.264 86.1259Z" fill="#FB4B86"/>
<path id="Vector_3" d="M167.264 86.1259L105.321 98.9317L63.2558 51.6903L63.2585 51.6846L125.202 38.8787L167.266 86.123L167.264 86.1259Z" fill="#FA0053"/>
</g>
<g id="Group_2">
<path id="Vector_4" d="M45.4448 68.1228L20.9306 74.2394L13.9714 98.5224L38.4814 92.4073L45.4448 68.1228Z" fill="#EA004E"/>
<path id="Vector_5" d="M56.0338 110.579L31.5238 116.695L13.9715 98.5224L38.4814 92.4073L56.0338 110.579Z" fill="#FB4B86"/>
<path id="Vector_6" d="M56.0333 110.579L38.4809 92.4073L45.4414 68.1214L45.4443 68.1227L62.9938 86.2935L56.0347 110.577L56.0333 110.579Z" fill="#FA0053"/>
</g>
<g id="Group_3">
<path id="Vector_7" d="M160.55 48.8693L145.41 51.5483L140.158 66.0003L155.299 63.3212L160.55 48.8693Z" fill="#EA004E"/>
<path id="Vector_8" d="M165.19 75.0955L150.047 77.7732L140.158 66.0003L155.298 63.3212L165.19 75.0955Z" fill="#FB4B86"/>
<path id="Vector_9" d="M165.188 75.0941L155.299 63.3212L160.55 48.8692L170.442 60.6434L165.191 75.0954L165.188 75.0941Z" fill="#FA0053"/>
</g>
</g>
<g id="Group 142">
<g id="Group 3">
<path id="Vector_10" opacity="0.09" d="M44.4493 174.188C40.9836 174.189 37.5399 174.74 34.2465 175.819C29.3628 177.436 25.335 180.111 37.0722 183.146C56.2345 188.1 181.933 185.844 186.556 179.992C191.179 174.141 117.104 173.079 117.104 173.079C117.104 173.079 78.5913 174.083 44.4493 174.188Z" fill="#3D4F53"/>
<path id="Vector_11" d="M97.1865 165.903C97.1865 165.903 97.8548 173.688 97.6561 175.243C97.4575 176.798 101.913 173.277 101.913 173.277C101.913 173.277 101.43 167.486 101.762 166.461C102.095 165.437 97.1865 165.903 97.1865 165.903Z" fill="black"/>
<path id="Vector_12" d="M75.0466 166.602C75.0466 166.602 74.8398 172.366 73.756 173.203C72.6723 174.04 79.2385 173.984 79.2385 173.984C79.2385 173.984 79.6702 167.391 79.9311 167.15C80.1919 166.909 75.0466 166.602 75.0466 166.602Z" fill="black"/>
<path id="Vector_13" d="M80.4859 172.416C80.4859 172.625 80.467 173.284 80.4399 174.009C80.396 175.144 80.3372 176.446 80.3372 176.446C80.3372 176.446 81.5008 177.122 76.3433 177.41C72.6663 177.613 69.7264 177.649 68.3852 177.363C67.8446 177.248 67.5636 177.081 67.598 176.852C67.598 176.827 67.6048 176.8 67.6075 176.769C67.648 176.364 67.6075 175.575 67.5541 174.827C67.4865 173.907 67.396 173.051 67.396 173.051C67.396 173.051 69.8386 172.047 71.6183 171.057C73.398 170.067 74.5237 169.65 74.7582 171.234C74.9926 172.818 78.246 172.679 79.2616 171.725C80.2771 170.771 80.4778 171.877 80.4859 172.416Z" fill="#33231C"/>
<path id="Vector_14" opacity="0.61" d="M76.3433 177.41C72.6663 177.613 69.7264 177.649 68.3852 177.363C68.1147 177.18 67.8551 176.982 67.6075 176.769C67.648 176.364 67.6075 175.575 67.5541 174.827C68.0075 174.219 67.396 173.051 67.396 173.051C67.396 173.051 68.2609 172.87 69.7163 175.034C70.5947 176.34 80.4399 174.009 80.4399 174.009C80.396 175.144 80.3372 176.446 80.3372 176.446C80.3372 176.446 81.5008 177.123 76.3433 177.41Z" fill="black"/>
<path id="Vector_15" d="M71.0779 172.123C71.0011 172.125 70.9264 172.149 70.8631 172.192C70.7998 172.235 70.7506 172.297 70.7217 172.368C70.6928 172.439 70.6854 172.517 70.7005 172.592C70.7156 172.667 70.7524 172.737 70.8065 172.791C70.8606 172.846 70.9294 172.883 71.0046 172.899C71.0798 172.915 71.1579 172.908 71.2293 172.88C71.3006 172.851 71.3621 172.803 71.4061 172.74C71.45 172.677 71.4745 172.602 71.4765 172.525C71.4757 172.42 71.4335 172.318 71.359 172.243C71.2845 172.168 71.1836 172.125 71.0779 172.123Z" fill="black"/>
<path id="Vector_16" d="M70.0932 172.867C70.0147 172.868 69.9383 172.892 69.8735 172.936C69.8086 172.98 69.7582 173.043 69.7285 173.115C69.6988 173.188 69.6911 173.268 69.7064 173.345C69.7217 173.421 69.7593 173.492 69.8145 173.548C69.8697 173.604 69.9401 173.642 70.0169 173.658C70.0937 173.674 70.1735 173.667 70.2465 173.638C70.3194 173.609 70.3822 173.56 70.427 173.495C70.4718 173.431 70.4967 173.355 70.4986 173.276C70.4986 173.168 70.456 173.065 70.3801 172.988C70.3042 172.911 70.2011 172.868 70.0932 172.867Z" fill="black"/>
<path id="Vector_17" d="M72.1168 171.557C72.0427 171.558 71.9705 171.581 71.9093 171.623C71.8481 171.665 71.8005 171.724 71.7726 171.793C71.7446 171.862 71.7374 171.937 71.752 172.01C71.7665 172.082 71.8021 172.149 71.8543 172.202C71.9065 172.255 71.973 172.291 72.0456 172.306C72.1182 172.321 72.1937 172.315 72.2626 172.287C72.3316 172.26 72.3909 172.213 72.4334 172.152C72.4758 172.091 72.4994 172.019 72.5013 171.945C72.5014 171.843 72.4611 171.744 72.3891 171.672C72.317 171.599 72.2191 171.558 72.1168 171.557Z" fill="black"/>
<path id="Vector_18" d="M73.6481 170.598C73.5479 170.599 73.4505 170.63 73.3679 170.687C73.2852 170.743 73.221 170.823 73.1833 170.916C73.1455 171.008 73.1358 171.11 73.1554 171.208C73.175 171.307 73.223 171.397 73.2935 171.468C73.364 171.539 73.4538 171.588 73.5518 171.608C73.6498 171.629 73.7517 171.62 73.8448 171.583C73.9378 171.546 74.018 171.483 74.0753 171.401C74.1326 171.319 74.1644 171.221 74.167 171.121C74.1672 170.983 74.1127 170.851 74.0155 170.753C73.9183 170.654 73.7862 170.599 73.6481 170.598Z" fill="black"/>
<path id="Vector_19" d="M73.6284 171.297C73.6619 171.298 73.6951 171.291 73.725 171.276C73.7549 171.261 73.7807 171.239 73.8 171.211C73.8142 171.19 73.8239 171.167 73.8286 171.142C73.8334 171.118 73.833 171.092 73.8276 171.068C73.8221 171.043 73.8117 171.02 73.797 170.999C73.7823 170.979 73.7635 170.962 73.7419 170.949C72.4446 170.142 72.2156 170.273 72.1297 170.325C71.967 170.421 71.8378 170.564 71.7595 170.736C71.7399 170.812 71.748 170.893 71.7824 170.963C71.7824 170.963 71.8804 170.921 71.9743 170.873C72.0243 170.846 72.0669 170.812 72.1095 170.795C72.221 170.747 72.202 170.66 72.3122 170.66C72.4223 170.66 73.0662 170.977 73.5284 171.263C73.5581 171.283 73.5926 171.295 73.6284 171.297Z" fill="white"/>
<path id="Vector_20" d="M72.0994 172.123C72.137 172.125 72.1742 172.115 72.2068 172.096C72.2288 172.084 72.2481 172.068 72.2636 172.048C72.279 172.028 72.2902 172.005 72.2965 171.981C72.3029 171.956 72.3042 171.931 72.3004 171.906C72.2965 171.881 72.2877 171.858 72.2744 171.836C71.5947 170.755 71.3778 170.786 71.2744 170.801C70.9676 170.843 70.8474 171.219 70.8352 171.258C70.8167 171.324 70.8125 171.393 70.823 171.461C70.823 171.461 71.1136 171.367 71.146 171.267C71.1643 171.211 71.2676 171.22 71.321 171.232C71.3744 171.244 71.7224 171.69 71.9352 172.029C71.9528 172.057 71.9769 172.08 72.0056 172.096C72.0342 172.113 72.0664 172.122 72.0994 172.123Z" fill="white"/>
<path id="Vector_21" d="M71.0654 172.705C71.1176 172.706 71.1685 172.687 71.2073 172.652C71.2264 172.636 71.2418 172.615 71.2526 172.592C71.2634 172.569 71.2693 172.544 71.2699 172.519C71.2706 172.493 71.2659 172.468 71.2563 172.445C71.2467 172.421 71.2323 172.4 71.214 172.382C71.2093 172.377 70.7532 171.915 70.6945 171.459C70.6866 171.408 70.6591 171.363 70.6179 171.332C70.5767 171.301 70.5251 171.288 70.4742 171.295C70.449 171.297 70.4245 171.305 70.4021 171.317C70.3797 171.329 70.36 171.345 70.3439 171.364C70.3279 171.384 70.3159 171.407 70.3087 171.431C70.3015 171.455 70.2992 171.481 70.3019 171.506C70.3769 172.087 70.9053 172.621 70.9276 172.644C70.964 172.681 71.0133 172.703 71.0654 172.705Z" fill="white"/>
<path id="Vector_22" d="M70.078 173.415C70.114 173.417 70.1496 173.408 70.1813 173.391C70.2034 173.379 70.2229 173.363 70.2386 173.344C70.2544 173.324 70.2661 173.302 70.273 173.278C70.28 173.254 70.282 173.229 70.279 173.204C70.276 173.179 70.2681 173.155 70.2557 173.134C70.2421 173.111 69.9698 172.62 70.2462 171.815C70.254 171.791 70.2569 171.766 70.2547 171.741C70.2525 171.716 70.2453 171.692 70.2335 171.669C70.2218 171.647 70.2056 171.627 70.1861 171.611C70.1666 171.596 70.144 171.584 70.1198 171.577C70.0707 171.561 70.0175 171.565 69.971 171.587C69.9246 171.61 69.8884 171.649 69.8698 171.697C69.532 172.673 69.8955 173.294 69.9111 173.319C69.9287 173.347 69.9531 173.371 69.9823 173.388C70.0114 173.405 70.0443 173.414 70.078 173.415Z" fill="white"/>
<path id="Vector_23" d="M108.408 179.711C108.408 179.711 102.682 180.711 99.4344 180.146C99.185 180.105 98.9402 180.04 98.7034 179.951C98.6237 179.92 98.5457 179.885 98.4696 179.846C96.6189 178.9 98.0324 176.496 97.2662 174.993C96.9642 174.402 97.6236 173.364 97.6216 172.501C98.1419 173.94 98.7108 174.304 99.0858 173.576C99.4608 172.848 99.279 170.771 101.036 170.686C102.794 170.601 103.249 172.434 103.249 172.434C103.374 173.227 104.236 173.718 105.222 174.326C106.782 175.291 108.654 176.54 108.408 179.711Z" fill="#33231C"/>
<path id="Vector_24" d="M96.8364 172.741C96.8364 172.673 96.8364 172.606 96.8364 172.538C96.8406 172.606 96.8406 172.673 96.8364 172.741Z" fill="#33231C"/>
<path id="Vector_25" opacity="0.61" d="M100.992 179.192C100.6 179.562 99.5222 179.846 98.4695 179.846C96.6188 178.9 98.0323 176.496 97.2661 174.993C97.3026 175.034 98.9384 176.79 100.476 175.284C100.476 175.284 101.82 178.412 100.992 179.192Z" fill="black"/>
<path id="Vector_26" d="M108.408 179.711C108.408 179.711 102.682 180.711 99.4345 180.146C99.185 180.105 98.9402 180.04 98.7034 179.951C98.6687 179.464 98.6982 178.974 98.7912 178.495C98.2196 178.667 97.5169 176.302 97.5169 176.302L97.5088 175.994C97.5088 175.994 98.1669 176.944 98.5527 177.154C98.6282 177.199 98.7147 177.222 98.8027 177.221C98.8698 177.214 98.9342 177.191 98.9904 177.154C99.0466 177.117 99.093 177.066 99.1257 177.007C99.5953 175.808 101.003 173.998 105.221 174.33C106.126 174.888 107.135 175.542 107.776 176.611C108.103 177.162 108.31 177.775 108.384 178.412C108.436 178.843 108.444 179.278 108.408 179.711Z" fill="white"/>
<path id="Vector_27" opacity="0.21" d="M108.384 178.407C106.921 178.922 103.334 179.25 101.835 179.057C100.867 178.924 99.937 178.595 99.1011 178.09C99.1011 178.09 104.669 178.022 106.475 177.279C106.929 177.097 107.365 176.872 107.776 176.607C108.103 177.157 108.31 177.771 108.384 178.407Z" fill="black"/>
<path id="Vector_28" d="M80.3709 175.678L80.3372 176.446C80.3372 176.446 79.8892 177.319 79.2561 177.392C78.8507 177.44 74.4371 177.595 71.2662 177.657C69.4418 177.692 68.027 177.694 68.031 177.624C68.0313 177.616 68.0325 177.609 68.0344 177.601C66.5999 177.648 64.5384 177.718 64.4148 177.736C64.2411 177.762 63.033 177.423 62.9999 175.659C62.9977 175.492 63.0045 175.324 63.0202 175.157C63.2398 172.844 65.6391 172.537 67.3966 173.048C68.3276 173.319 68.8364 174.567 69.1094 175.68C69.1378 175.794 69.4473 176.89 70.4743 176.902C71.5601 176.921 80.3709 175.678 80.3709 175.678Z" fill="white"/>
<path id="Vector_29" opacity="0.21" d="M76.0225 176.942C73.8901 177.492 68.0265 177.696 68.0306 177.626C68.0309 177.618 68.0321 177.611 68.034 177.603C66.5995 177.65 64.538 177.72 64.4144 177.738C64.2407 177.764 63.0326 177.425 62.9995 175.661C62.9995 175.661 65.9853 177.486 70.5982 177.157C71.486 177.094 74.6198 176.91 76.0225 176.942Z" fill="black"/>
<path id="Vector_30" d="M63.1847 176.675C63.1847 176.675 63.3678 177.874 71.9063 177.259C80.4448 176.644 80.3374 176.448 80.3374 176.448C80.3374 176.448 81.7847 176.984 80.3874 177.582C79.1347 178.117 64.6603 179.163 62.6306 177.89C62.6306 177.89 62.1732 177.619 62.1245 177.265C62.0759 176.91 62.5515 176.428 63.1847 176.675Z" fill="black"/>
<path id="Vector_31" d="M99.4341 180.146C96.9267 179.711 97.5185 177.895 97.5165 176.303C98.4077 178.537 99.5685 178.394 103.493 178.3C106.034 178.238 107.461 177.861 108.201 177.568C108.388 178.169 108.471 178.871 108.408 179.711C108.408 179.711 102.681 180.711 99.4341 180.146Z" fill="black"/>
<path id="Vector_32" d="M100.73 173.172C100.916 173.114 101.031 172.955 100.988 172.818C100.945 172.681 100.76 172.617 100.574 172.676C100.388 172.734 100.272 172.893 100.315 173.03C100.358 173.167 100.544 173.231 100.73 173.172Z" fill="black"/>
<path id="Vector_33" d="M101.109 173.75C101.294 173.692 101.41 173.533 101.367 173.396C101.324 173.259 101.139 173.196 100.953 173.254C100.767 173.312 100.651 173.471 100.694 173.608C100.737 173.745 100.923 173.809 101.109 173.75Z" fill="black"/>
<path id="Vector_34" d="M101.49 174.335C101.676 174.277 101.792 174.119 101.749 173.981C101.705 173.844 101.52 173.781 101.334 173.839C101.148 173.897 101.032 174.056 101.076 174.193C101.119 174.33 101.304 174.394 101.49 174.335Z" fill="black"/>
<path id="Vector_35" d="M101.583 174.161C101.583 174.161 103.272 173.602 104.54 173.971C104.54 173.971 104.985 173.957 104.073 173.667C103.16 173.377 101.287 173.891 101.312 174.059C101.337 174.226 101.583 174.161 101.583 174.161Z" fill="white"/>
<path id="Vector_36" d="M101.231 173.521C101.231 173.521 102.699 172.996 103.81 173.352C103.81 173.352 104.198 173.34 103.401 173.061C102.603 172.782 100.972 173.263 100.994 173.423C101.016 173.582 101.231 173.521 101.231 173.521Z" fill="white"/>
<path id="Vector_37" d="M100.767 172.982C100.767 172.982 102.235 172.457 103.345 172.813C103.345 172.813 103.733 172.801 102.936 172.522C102.138 172.243 100.507 172.725 100.53 172.884C100.552 173.044 100.767 172.982 100.767 172.982Z" fill="white"/>
<path id="Vector_38" d="M145.364 168.584C145.364 168.584 147.377 174.305 147.183 175.819C146.99 177.332 150.746 173.357 150.746 173.357C150.746 173.357 149.952 168.72 150.273 167.724C150.593 166.728 145.364 168.584 145.364 168.584Z" fill="black"/>
<path id="Vector_39" d="M124.02 166.602C124.02 166.602 123.813 172.366 122.73 173.203C121.646 174.04 128.211 173.984 128.211 173.984C128.211 173.984 128.644 167.391 128.905 167.15C129.166 166.909 124.02 166.602 124.02 166.602Z" fill="black"/>
<path id="Vector_40" d="M129.46 172.416C129.46 172.625 129.441 173.284 129.414 174.009C129.37 175.144 129.311 176.446 129.311 176.446C129.311 176.446 130.474 177.122 125.317 177.41C121.64 177.613 118.7 177.649 117.359 177.363C116.818 177.248 116.537 177.081 116.571 176.852C116.575 176.828 116.578 176.8 116.581 176.769C116.622 176.364 116.581 175.575 116.528 174.827C116.46 173.907 116.37 173.051 116.37 173.051C116.37 173.051 118.812 172.047 120.591 171.057C122.37 170.067 123.497 169.65 123.731 171.234C123.966 172.818 127.22 172.679 128.235 171.725C129.251 170.771 129.451 171.877 129.46 172.416Z" fill="#33231C"/>
<path id="Vector_41" opacity="0.61" d="M125.317 177.41C121.64 177.613 118.7 177.649 117.359 177.363C117.088 177.18 116.829 176.982 116.581 176.769C116.622 176.364 116.581 175.575 116.528 174.827C116.981 174.219 116.37 173.051 116.37 173.051C116.37 173.051 117.235 172.87 118.69 175.034C119.568 176.34 129.414 174.009 129.414 174.009C129.37 175.144 129.311 176.446 129.311 176.446C129.311 176.446 130.474 177.123 125.317 177.41Z" fill="black"/>
<path id="Vector_42" d="M120.052 172.123C119.975 172.125 119.901 172.148 119.837 172.192C119.774 172.235 119.725 172.296 119.696 172.367C119.667 172.438 119.659 172.516 119.674 172.592C119.689 172.667 119.726 172.736 119.78 172.791C119.834 172.846 119.903 172.883 119.978 172.899C120.053 172.915 120.131 172.908 120.203 172.88C120.274 172.851 120.336 172.803 120.38 172.74C120.424 172.677 120.448 172.602 120.45 172.525C120.449 172.42 120.407 172.319 120.333 172.244C120.259 172.168 120.158 172.125 120.052 172.123Z" fill="black"/>
<path id="Vector_43" d="M119.067 172.867C118.988 172.868 118.912 172.892 118.847 172.936C118.782 172.98 118.732 173.043 118.702 173.115C118.672 173.188 118.665 173.268 118.68 173.345C118.695 173.421 118.733 173.492 118.788 173.548C118.843 173.604 118.914 173.642 118.991 173.658C119.067 173.674 119.147 173.667 119.22 173.638C119.293 173.609 119.356 173.56 119.401 173.495C119.445 173.431 119.47 173.355 119.472 173.276C119.472 173.168 119.43 173.065 119.354 172.988C119.278 172.911 119.175 172.868 119.067 172.867Z" fill="black"/>
<path id="Vector_44" d="M121.09 171.557C121.016 171.558 120.944 171.581 120.882 171.623C120.821 171.665 120.774 171.724 120.746 171.793C120.718 171.862 120.711 171.937 120.725 172.01C120.74 172.082 120.775 172.149 120.827 172.202C120.88 172.255 120.946 172.291 121.019 172.306C121.091 172.321 121.167 172.315 121.236 172.287C121.305 172.26 121.364 172.213 121.407 172.152C121.449 172.091 121.473 172.019 121.474 171.945C121.474 171.843 121.434 171.745 121.362 171.672C121.29 171.6 121.192 171.558 121.09 171.557Z" fill="black"/>
<path id="Vector_45" d="M122.62 170.598C122.52 170.599 122.422 170.63 122.34 170.687C122.257 170.743 122.193 170.823 122.155 170.916C122.117 171.008 122.107 171.11 122.127 171.208C122.147 171.307 122.195 171.397 122.265 171.468C122.336 171.539 122.425 171.588 122.523 171.608C122.621 171.629 122.723 171.62 122.816 171.583C122.909 171.546 122.99 171.483 123.047 171.401C123.104 171.319 123.136 171.221 123.139 171.121C123.138 170.983 123.084 170.851 122.987 170.753C122.89 170.655 122.758 170.599 122.62 170.598Z" fill="black"/>
<path id="Vector_46" d="M122.602 171.297C122.635 171.298 122.668 171.291 122.698 171.276C122.728 171.261 122.754 171.239 122.773 171.211C122.787 171.19 122.797 171.167 122.802 171.142C122.807 171.118 122.806 171.092 122.801 171.068C122.795 171.043 122.785 171.02 122.77 170.999C122.756 170.979 122.737 170.962 122.715 170.949C121.418 170.142 121.189 170.273 121.103 170.325C120.94 170.421 120.811 170.565 120.732 170.736C120.713 170.812 120.721 170.893 120.755 170.963C120.755 170.963 120.854 170.921 120.947 170.873C120.998 170.846 121.04 170.812 121.082 170.795C121.193 170.747 121.175 170.66 121.288 170.66C121.402 170.66 122.042 170.977 122.504 171.263C122.533 171.282 122.567 171.294 122.602 171.297Z" fill="white"/>
<path id="Vector_47" d="M121.073 172.123C121.111 172.125 121.148 172.115 121.181 172.096C121.203 172.084 121.222 172.068 121.237 172.048C121.253 172.028 121.264 172.005 121.27 171.981C121.276 171.956 121.278 171.931 121.274 171.906C121.27 171.881 121.261 171.858 121.248 171.836C120.569 170.755 120.352 170.786 120.248 170.801C119.942 170.843 119.821 171.219 119.809 171.258C119.79 171.324 119.786 171.393 119.797 171.461C119.797 171.461 120.087 171.367 120.119 171.267C120.138 171.211 120.242 171.22 120.295 171.232C120.348 171.244 120.696 171.69 120.909 172.029C120.927 172.057 120.951 172.08 120.979 172.096C121.008 172.113 121.04 172.122 121.073 172.123Z" fill="white"/>
<path id="Vector_48" d="M120.036 172.704C120.088 172.706 120.139 172.687 120.177 172.652C120.197 172.636 120.212 172.615 120.223 172.592C120.234 172.569 120.239 172.544 120.24 172.519C120.241 172.493 120.236 172.468 120.227 172.445C120.217 172.421 120.202 172.4 120.184 172.382C120.18 172.377 119.723 171.915 119.665 171.459C119.657 171.408 119.629 171.363 119.588 171.332C119.546 171.301 119.495 171.288 119.444 171.295C119.419 171.297 119.394 171.305 119.372 171.317C119.35 171.329 119.33 171.345 119.314 171.365C119.298 171.384 119.286 171.407 119.279 171.431C119.272 171.455 119.269 171.481 119.272 171.506C119.347 172.087 119.875 172.621 119.898 172.644C119.934 172.681 119.984 172.703 120.036 172.704Z" fill="white"/>
<path id="Vector_49" d="M119.052 173.415C119.088 173.416 119.123 173.408 119.155 173.391C119.177 173.379 119.197 173.363 119.212 173.344C119.228 173.325 119.24 173.302 119.247 173.278C119.254 173.254 119.256 173.229 119.253 173.204C119.25 173.179 119.242 173.155 119.229 173.134C119.216 173.111 118.944 172.62 119.22 171.815C119.228 171.791 119.231 171.766 119.229 171.741C119.227 171.716 119.219 171.692 119.208 171.669C119.196 171.647 119.18 171.627 119.16 171.611C119.141 171.596 119.118 171.584 119.094 171.577C119.045 171.561 118.992 171.565 118.945 171.587C118.899 171.61 118.863 171.649 118.844 171.697C118.509 172.673 118.87 173.294 118.885 173.319C118.902 173.348 118.927 173.372 118.956 173.389C118.985 173.406 119.018 173.415 119.052 173.415Z" fill="white"/>
<path id="Vector_50" d="M157.382 179.711C157.382 179.711 151.656 180.711 148.408 180.146C148.159 180.105 147.914 180.04 147.678 179.951C147.598 179.92 147.52 179.885 147.444 179.846C145.592 178.9 147.007 176.496 146.24 174.993C145.938 174.402 146.597 173.364 146.596 172.501C147.116 173.94 147.685 174.304 148.06 173.576C148.435 172.848 148.253 170.771 150.011 170.686C151.769 170.601 152.223 172.434 152.223 172.434C152.348 173.227 153.21 173.718 154.196 174.326C155.757 175.291 157.628 176.54 157.382 179.711Z" fill="#33231C"/>
<path id="Vector_51" d="M145.811 172.741C145.811 172.673 145.811 172.606 145.811 172.538C145.815 172.606 145.815 172.673 145.811 172.741Z" fill="#33231C"/>
<path id="Vector_52" opacity="0.61" d="M149.965 179.192C149.573 179.562 148.496 179.846 147.444 179.846C145.592 178.9 147.006 176.496 146.24 174.993C146.277 175.034 147.913 176.79 149.45 175.284C149.45 175.284 150.796 178.412 149.965 179.192Z" fill="black"/>
<path id="Vector_53" d="M157.382 179.711C157.382 179.711 151.656 180.711 148.408 180.146C148.159 180.105 147.914 180.04 147.678 179.951C147.643 179.464 147.672 178.974 147.765 178.495C147.194 178.667 146.491 176.302 146.491 176.302L146.483 175.994C146.483 175.994 147.141 176.944 147.527 177.154C147.602 177.199 147.688 177.222 147.776 177.221C147.843 177.214 147.908 177.191 147.964 177.154C148.021 177.117 148.067 177.066 148.1 177.007C148.573 175.808 149.977 173.998 154.195 174.33C155.1 174.888 156.109 175.542 156.749 176.611C157.076 177.162 157.284 177.775 157.357 178.412C157.41 178.843 157.418 179.278 157.382 179.711Z" fill="white"/>
<path id="Vector_54" opacity="0.21" d="M157.358 178.407C155.896 178.922 152.309 179.25 150.809 179.057C149.842 178.924 148.912 178.595 148.076 178.09C148.076 178.09 153.643 178.022 155.45 177.279C155.904 177.097 156.339 176.872 156.75 176.607C157.077 177.157 157.284 177.771 157.358 178.407Z" fill="black"/>
<path id="Vector_55" d="M129.345 175.678L129.309 176.448C129.309 176.448 128.861 177.321 128.228 177.394C127.823 177.441 123.409 177.596 120.237 177.659C118.413 177.694 116.999 177.695 117.002 177.625C117.003 177.618 117.005 177.61 117.006 177.602C115.572 177.65 113.51 177.719 113.387 177.738C113.213 177.763 112.005 177.424 111.972 175.661C111.969 175.493 111.976 175.325 111.992 175.159C112.212 172.845 114.611 172.538 116.368 173.05C117.3 173.32 117.808 174.568 118.081 175.682C118.11 175.795 118.419 176.892 119.446 176.903C120.533 176.921 129.345 175.678 129.345 175.678Z" fill="white"/>
<path id="Vector_56" opacity="0.21" d="M124.996 176.942C122.864 177.492 117 177.696 117.004 177.626C117.004 177.618 117.006 177.611 117.008 177.603C115.573 177.65 113.512 177.72 113.388 177.738C113.214 177.764 112.006 177.425 111.973 175.661C111.973 175.661 114.959 177.486 119.571 177.157C120.458 177.094 123.593 176.91 124.996 176.942Z" fill="black"/>
<path id="Vector_57" d="M112.159 176.675C112.159 176.675 112.342 177.874 120.88 177.259C129.419 176.644 129.309 176.448 129.309 176.448C129.309 176.448 130.756 176.984 129.359 177.581C128.106 178.116 113.632 179.162 111.602 177.889C111.602 177.889 111.145 177.619 111.095 177.264C111.046 176.909 111.526 176.428 112.159 176.675Z" fill="black"/>
<path id="Vector_58" d="M148.408 180.146C145.901 179.711 146.492 177.895 146.49 176.303C147.382 178.537 148.543 178.394 152.467 178.3C155.008 178.238 156.435 177.861 157.175 177.568C157.362 178.169 157.445 178.871 157.382 179.711C157.382 179.711 151.656 180.711 148.408 180.146Z" fill="black"/>
<path id="Vector_59" d="M149.705 173.175C149.891 173.117 150.006 172.958 149.963 172.821C149.92 172.684 149.735 172.62 149.549 172.679C149.363 172.737 149.247 172.895 149.29 173.032C149.333 173.169 149.519 173.233 149.705 173.175Z" fill="black"/>
<path id="Vector_60" d="M150.083 173.753C150.269 173.695 150.385 173.536 150.342 173.399C150.299 173.262 150.113 173.198 149.927 173.257C149.741 173.315 149.626 173.473 149.669 173.61C149.712 173.748 149.897 173.811 150.083 173.753Z" fill="black"/>
<path id="Vector_61" d="M150.465 174.338C150.65 174.28 150.766 174.121 150.723 173.984C150.68 173.847 150.494 173.783 150.309 173.842C150.123 173.9 150.007 174.058 150.05 174.196C150.093 174.333 150.279 174.396 150.465 174.338Z" fill="black"/>
<path id="Vector_62" d="M150.556 174.161C150.556 174.161 152.246 173.602 153.514 173.971C153.514 173.971 153.958 173.957 153.046 173.667C152.134 173.377 150.26 173.891 150.285 174.059C150.31 174.226 150.556 174.161 150.556 174.161Z" fill="white"/>
<path id="Vector_63" d="M150.205 173.521C150.205 173.521 151.673 172.996 152.784 173.352C152.784 173.352 153.171 173.34 152.374 173.061C151.577 172.782 149.946 173.263 149.968 173.423C149.99 173.582 150.205 173.521 150.205 173.521Z" fill="white"/>
<path id="Vector_64" d="M149.74 172.982C149.74 172.982 151.209 172.457 152.319 172.813C152.319 172.813 152.707 172.801 151.909 172.522C151.112 172.243 149.481 172.725 149.503 172.884C149.525 173.044 149.74 172.982 149.74 172.982Z" fill="white"/>
<path id="Vector_65" opacity="0.75" d="M114.309 123.978C114.309 123.978 114.902 125.74 116.723 126.872C116.723 126.872 117.09 127.147 117.348 126.792C117.607 126.436 115.764 124.414 115.829 124.224C115.894 124.033 118.531 126.504 119.483 126.487C120.434 126.471 116.681 123.92 116.723 123.302C116.723 123.302 119.402 125.113 120.55 125.356C121.698 125.598 117.615 122.914 117.514 122.494C117.514 122.494 118.787 122.785 119.967 123.028C121.147 123.271 119.542 122.139 118.882 121.912C118.222 121.686 117.898 121.605 117.898 121.605C117.898 121.605 117.623 120.764 117.882 119.308C118.141 117.851 118.06 116.364 117.769 116.219C117.477 116.074 115.037 116.123 114.681 117.658C114.325 119.194 114.309 123.978 114.309 123.978Z" fill="#4C2409"/>
<path id="Vector_66" opacity="0.75" d="M114.093 116.326C114.093 116.326 113.101 120.271 113.101 120.702C113.101 121.133 114.047 124.086 113.813 124.323C113.578 124.56 113.745 125.337 114.653 124.56C115.561 123.784 114.912 121.714 115.171 121.327C115.429 120.939 116.741 118.138 116.725 116.477C116.709 114.815 114.093 116.326 114.093 116.326Z" fill="#4C2409"/>
<path id="Vector_67" d="M113.812 114.946V116.8C113.812 116.8 117.251 117.167 118.204 116.8C119.158 116.433 118.943 114.816 118.533 114.773C118.124 114.729 113.812 114.946 113.812 114.946Z" fill="white"/>
<path id="Vector_68" d="M151.626 167.315C150.942 167.932 149.931 168.276 148.86 168.459C146.471 168.864 143.789 168.459 143.789 168.459C143.391 163.622 140.381 151.056 139.131 140.885C137.882 130.713 134.36 119.644 133.394 118.348C132.428 117.068 130.894 144.178 131.123 149.361C131.352 154.544 130.327 166.861 130.327 166.861C129.408 167.164 128.455 167.349 127.489 167.412C124.917 167.582 123.054 166.861 123.054 166.861C123.054 166.861 122.941 143.576 122.601 141.432C122.26 139.288 121.918 136.197 122.146 134.651C122.303 133.586 121.947 123.667 121.71 117.602V117.597C121.603 114.862 121.521 112.912 121.521 112.912C121.521 112.912 123.224 106.779 123.679 106.33C123.792 106.219 124.617 106.075 125.835 105.919C128.655 105.558 133.583 105.14 136.642 104.944C137.601 104.882 138.375 104.843 138.845 104.834C141.448 104.784 147.489 117.054 147.535 117.149L147.539 117.249C147.539 117.259 147.539 117.27 147.539 117.281L147.544 117.396C147.544 117.429 147.547 117.467 147.549 117.507V117.538C147.549 117.56 147.549 117.581 147.552 117.606C147.556 117.63 147.552 117.652 147.552 117.673C147.574 118.183 147.613 119.036 147.663 120.122C147.666 120.194 147.67 120.266 147.673 120.339C147.898 125.21 148.339 134.377 148.665 138.589C149.119 144.473 149.914 146.217 149.914 150.306C149.914 154.394 151.626 167.315 151.626 167.315Z" fill="#2B363C"/>
<path id="Vector_69" d="M151.627 167.315C150.942 167.931 149.931 168.276 148.86 168.459C148.349 163.42 146.674 147.69 145.436 145.475C143.959 142.832 144.612 124.458 144.3 122.614C144.069 121.253 143.945 117.974 143.219 117.906C141.033 117.826 134.859 117.552 134.392 117.373C133.483 117.024 133.992 113.589 134.162 112.19C134.281 111.219 132.937 112.087 131.169 112.266C130.398 112.345 130.174 107.725 128.341 109.091C127.487 109.726 128.457 117.164 128.135 117.961C127.814 118.758 121.716 118.387 121.716 118.387V116.002C121.716 116.002 123.986 105.854 124.994 104.354C125.091 104.207 131.987 104.455 134.701 104.14C135.192 104.083 135.865 104.391 136.648 104.951C140.639 107.789 147.361 114.587 147.423 114.673C147.594 110.784 147.542 117.156 147.542 117.156L147.677 120.129L147.687 120.347C147.912 125.218 148.354 134.385 148.679 138.596C149.133 144.48 149.929 146.225 149.929 150.313C149.929 154.402 151.627 167.315 151.627 167.315Z" fill="#1C2426"/>
<path id="Vector_70" d="M124.526 105.871L132.149 105.612C132.149 105.612 130.658 103.165 130.501 102.892C130.343 102.619 124.591 102.508 124.526 105.871Z" fill="black"/>
<path id="Vector_71" d="M126.347 95.7178C126.347 95.7178 124.85 103.931 125.497 104.189C126.143 104.448 131.251 104.189 131.251 104.189L126.347 95.7178Z" fill="#DBDBDB"/>
<path id="Vector_72" d="M68.8357 64.5393C68.8317 66.2773 68.5111 68 67.8898 69.6231C67.6041 70.3663 67.2581 71.085 66.8553 71.7718C66.7364 71.9736 66.6134 72.172 66.4864 72.367C62.306 78.7745 53.7837 80.8292 47.1134 76.917C46.8075 76.7369 46.5107 76.5479 46.2228 76.3502C40.0485 72.1029 38.1147 63.7413 41.9661 57.1751C43.808 54.0309 46.7722 51.7007 50.2624 50.6532C53.7527 49.6057 57.5101 49.9187 60.779 51.5292C61.092 51.6837 61.4017 51.8506 61.708 52.0298C63.8879 53.3077 65.6938 55.136 66.9447 57.3314C68.1956 59.5269 68.8478 62.0125 68.8357 64.5393Z" fill="#D38D00"/>
<path id="Vector_73" d="M65.034 70.7042C64.7926 71.1146 64.5352 71.5085 64.2617 71.886C60.1583 77.5475 52.5218 79.4583 46.2212 76.3502C45.9058 76.1961 45.5959 76.0292 45.2914 75.8495C38.4191 71.8184 36.1157 62.9799 40.1461 56.1075C41.0468 54.5676 42.2261 53.2087 43.6238 52.1001H43.6279C44.4738 51.4299 45.3927 50.8574 46.3671 50.3933L46.4029 50.3758C48.528 49.3658 50.8681 48.8915 53.2188 48.9943C55.5695 49.0971 57.8592 49.7739 59.8881 50.9656C60.1944 51.1458 60.4915 51.3348 60.7793 51.5325C66.9536 55.7751 68.8854 64.1366 65.034 70.7042Z" fill="#FFC606"/>
<path id="Vector_74" d="M60.7709 71.5862C65.2894 67.0677 65.2894 59.7418 60.7709 55.2233C56.2524 50.7048 48.9265 50.7048 44.408 55.2233C39.8895 59.7418 39.8895 67.0677 44.408 71.5862C48.9265 76.1046 56.2524 76.1046 60.7709 71.5862Z" fill="#F5B400"/>
<path id="Vector_75" d="M43.0247 58.542C44.0865 56.7319 45.6204 55.2446 47.4625 54.2393C49.3046 53.234 51.3853 52.7486 53.4821 52.835C55.5788 52.9215 57.6126 53.5765 59.3656 54.7299C61.1187 55.8834 62.5251 57.4919 63.4343 59.3833C62.9051 57.9591 62.1005 56.6532 61.0666 55.5399C60.0327 54.4267 58.7897 53.5281 57.4085 52.8952C56.0273 52.2624 54.5349 51.9078 53.0167 51.8518C51.4985 51.7957 49.984 52.0392 48.5599 52.5684C47.1358 53.0976 45.8298 53.9021 44.7166 54.936C43.6034 55.9699 42.7047 57.2129 42.0719 58.5941C41.439 59.9754 41.0845 61.4677 41.0284 62.9859C40.9723 64.5042 41.2158 66.0186 41.745 67.4427C41.0167 64.4214 41.4748 61.2358 43.0247 58.542Z" fill="#D38D00"/>
<path id="Vector_76" d="M56.5275 57.9548L57.1951 56.817L56.0369 56.1373L55.3694 57.2751C53.4403 56.2677 52.464 56.5846 51.3099 58.5515C50.3072 60.2616 50.0869 60.9724 50.4721 61.7947C50.8869 62.7305 52.168 64.0001 52.4403 64.9265C52.566 65.3021 52.4991 65.49 52.2714 65.888C52.2383 65.9447 52.2038 66.0062 52.1633 66.0731C51.5268 67.1582 51.2626 67.3981 50.4531 66.9238C49.6261 66.4386 49.8518 65.9285 50.3477 65.0826C50.4593 64.8918 50.5832 64.7085 50.7187 64.5339L48.6781 63.3373C48.371 63.7129 48.0948 64.1129 47.8525 64.5332C46.7092 66.4819 47.195 67.5062 48.77 68.5305L47.9302 69.9609L49.0883 70.6366L49.939 69.1859C51.8809 70.1434 52.9119 69.6859 54.2856 67.5245C54.4032 67.3393 54.5237 67.1416 54.6471 66.9312C55.7572 65.0393 55.3133 64.5305 54.7234 63.6407C54.2971 63.0197 53.7538 62.4298 53.2565 61.7184C52.7937 61.0758 52.7917 60.9508 53.3532 59.9954C53.8937 59.0758 54.2052 58.9629 54.8674 59.3515C55.639 59.8042 55.5228 60.2548 55.0701 61.0271C54.9526 61.2384 54.8243 61.4434 54.6856 61.6413L56.7079 62.8271C56.9766 62.4843 57.2209 62.1231 57.439 61.7461C58.4633 60.0048 58.2126 59.042 56.5275 57.9548Z" fill="#FCE267"/>
<path id="Vector_77" opacity="0.75" d="M68.9758 77.4164C68.9758 77.4164 65.5156 79.163 64.9981 79.1948C64.9885 79.1964 64.9786 79.1964 64.969 79.1948C64.9636 79.1954 64.9582 79.1954 64.9528 79.1948C64.911 79.1831 64.8721 79.1629 64.8386 79.1353L64.817 79.1191C64.7343 79.0481 64.6594 78.9686 64.5933 78.8819L64.5717 78.8542C64.5494 78.8258 64.5271 78.7968 64.5042 78.7657C64.492 78.7502 64.4805 78.7339 64.4697 78.7177C64.446 78.686 64.4231 78.6502 64.4021 78.6177L64.367 78.5643C64.3555 78.5468 64.3433 78.5292 64.3319 78.511C64.2792 78.4306 64.2265 78.3461 64.1724 78.2569C64.1447 78.2117 64.117 78.165 64.0886 78.1171C64.0359 78.0272 63.9839 77.936 63.9312 77.8421C63.8589 77.713 63.7873 77.5812 63.7177 77.4508L63.6778 77.3758L63.6386 77.3015C63.5305 77.0941 63.4278 76.8961 63.3393 76.713L63.3123 76.6589C63.2055 76.442 63.1183 76.2616 63.0636 76.1448C63.0197 76.0522 62.996 75.9995 62.996 75.9995C63.1616 75.9304 63.32 75.8453 63.469 75.7454C64.79 74.867 65.7102 72.8758 65.8116 72.5319C65.8161 72.5193 65.8191 72.5061 65.8204 72.4927C65.8319 72.313 65.0325 72.2224 63.7724 71.7643C62.5123 71.3062 62.5109 69.7934 62.867 69.2116C63.2231 68.6299 64.3859 69.8582 65.5825 69.9231C66.7792 69.988 67.6521 70.1819 68.1048 72.0974C68.4244 73.4488 68.7278 75.5481 68.8792 76.665C68.94 77.1231 68.9758 77.4164 68.9758 77.4164Z" fill="#4C2409"/>
<path id="Vector_78" d="M68.9754 77.4164C68.9754 77.4164 65.5152 79.163 64.9976 79.1948C64.988 79.1964 64.9782 79.1964 64.9686 79.1948C64.9632 79.1954 64.9578 79.1954 64.9524 79.1948C64.9106 79.1832 64.8717 79.1629 64.8382 79.1353L64.8166 79.1191C64.7339 79.0481 64.6589 78.9686 64.5929 78.8819L64.5713 78.8542C64.549 78.8259 64.5267 78.7968 64.5037 78.7657C64.4916 78.7502 64.4801 78.734 64.4693 78.7177C64.4456 78.686 64.4226 78.6502 64.4017 78.6178L64.3666 78.5644C64.3551 78.5468 64.3429 78.5292 64.3314 78.511C64.2787 78.4306 64.226 78.3461 64.172 78.2569L64.0882 78.1171C64.0355 78.0272 63.9835 77.936 63.9307 77.8421C63.8585 77.713 63.7875 77.5813 63.7172 77.4509L63.6774 77.3759L63.6382 77.3015C63.5301 77.0941 63.4274 76.8961 63.3389 76.713L63.3118 76.659C63.2051 76.4421 63.1179 76.2617 63.0632 76.1448C63.0193 76.0522 62.9956 75.9995 62.9956 75.9995C63.1612 75.9304 63.3196 75.8453 63.4686 75.7454C64.7895 74.8671 65.7098 72.8758 65.8112 72.5319C65.7436 72.8319 65.3868 74.6758 66.0814 75.4177C66.4713 75.8326 65.4645 76.1137 64.3983 76.1833C64.3261 76.1882 64.2568 76.2139 64.1989 76.2573C64.1409 76.3007 64.0968 76.36 64.0718 76.4279C64.0468 76.4959 64.042 76.5696 64.0579 76.6402C64.0739 76.7108 64.11 76.7753 64.1618 76.8259C65.876 78.515 68.8767 76.663 68.8767 76.663C68.9395 77.1231 68.9754 77.4164 68.9754 77.4164Z" fill="#4C2409"/>
<path id="Vector_79" opacity="0.5" d="M85.7354 66.9961C85.7354 66.9961 86.7056 71.9137 86.3158 73.6116C85.9259 75.3096 91.3833 74.9785 91.7583 73.8671C91.7583 73.8671 91.107 70.7711 91.4928 68.136C91.8786 65.5008 85.7354 66.9961 85.7354 66.9961Z" fill="#4C2409"/>
<path id="Vector_80" d="M64.5115 80.0029L64.1885 78.5481C64.1885 78.5481 66.9365 79.0657 69.1027 76.9637L69.7176 78.8718C69.7176 78.8718 66.1331 81.7495 64.5115 80.0029Z" fill="white"/>
<path id="Vector_81" d="M89.3759 74.6758C89.3759 74.6758 85.2205 73.8596 84.0563 75.7028C82.8921 77.5461 82.9407 91.3684 87.0637 94.182C91.1867 96.9955 91.6712 100.673 93.757 97.234C95.8428 93.7948 97.9631 88.9232 97.9279 85.015C97.8928 81.1069 99.5773 78.2245 96.9583 76.2846C94.3394 74.3447 91.2752 73.5684 90.9158 73.811C90.5563 74.0535 89.3759 74.6758 89.3759 74.6758Z" fill="#DBDBDB"/>
<path id="Vector_82" d="M89.071 76.3293C89.071 76.3293 89.4089 84.0205 90.0967 91.4685C90.7845 98.9165 91.5771 108.195 91.9717 108.977L93.7359 110.158L94.9791 108.63C95.2068 107.812 90.2136 76.4894 89.8798 75.2191C89.8798 75.2191 89.0555 75.9921 89.071 76.3293Z" fill="black"/>
<path id="Vector_83" d="M88.4238 74.6191C88.4238 74.6191 88.4299 75.8962 88.8454 76.2245C89.261 76.5529 90.1015 76.1435 90.2191 76.0286C90.3367 75.9137 90.5198 75.4745 90.1704 74.4475L89.2184 74.6914L88.4238 74.6191Z" fill="#353535"/>
<path id="Vector_84" d="M104.449 112.916C104.449 112.916 104.366 114.866 104.26 117.601V117.605C104.022 123.672 103.666 133.59 103.823 134.655C104.051 136.201 103.71 139.292 103.369 141.436C103.028 143.581 102.915 166.866 102.915 166.866C102.445 167.031 101.962 167.157 101.47 167.242C100.485 167.423 99.48 167.481 98.4798 167.415C97.5144 167.353 96.5608 167.168 95.642 166.866C95.642 166.866 94.6197 154.55 94.8467 149.366C95.0737 144.181 93.5413 117.069 92.5758 118.352C91.6102 119.649 88.0886 130.717 86.8386 140.89C85.5886 151.062 82.5818 163.627 82.1818 168.463C80.8736 168.639 79.551 168.684 78.2338 168.598C77.8595 168.569 77.4811 168.525 77.1095 168.463C76.0392 168.28 75.0277 167.936 74.3433 167.319C74.3433 167.319 76.0466 154.404 76.0466 150.316C76.0466 146.227 76.8419 144.482 77.296 138.598C77.5966 134.702 77.998 126.567 78.2338 121.513C78.2534 121.103 78.271 120.714 78.2885 120.349C78.2885 120.276 78.2946 120.203 78.298 120.131C78.348 119.046 78.3865 118.192 78.4088 117.683C78.4088 117.659 78.4088 117.636 78.4088 117.615C78.4088 117.594 78.4088 117.571 78.4088 117.548V117.516C78.4088 117.477 78.4135 117.439 78.4142 117.405L78.4189 117.291C78.4189 117.279 78.4189 117.268 78.4189 117.258L78.423 117.159C78.4696 117.063 84.5102 104.794 87.1142 104.844C87.5832 104.852 88.3575 104.891 89.317 104.954C92.3751 105.15 97.3028 105.568 100.123 105.927C101.339 106.084 102.166 106.229 102.279 106.339C102.744 106.785 104.449 112.916 104.449 112.916Z" fill="#3E2928"/>
<path id="Vector_85" d="M104.448 112.916C104.448 112.916 104.366 114.866 104.259 117.601V117.605C104.022 123.672 103.666 133.59 103.823 134.655C104.05 136.201 103.71 139.292 103.369 141.436C103.027 143.581 102.915 166.866 102.915 166.866C102.444 167.031 101.961 167.157 101.47 167.242C101.875 166.156 101.277 123.081 100.698 120.356C100.118 117.631 98.7559 115.389 96.5248 114.708C94.6721 114.142 89.8315 114.083 88.7639 114.679C87.9045 115.16 86.1964 120.271 85.9991 121.037C85.8018 121.804 85.2234 121.848 85.2234 121.848C79.3058 122.7 78.2349 121.51 78.2349 121.51C78.2545 121.1 78.272 120.711 78.2896 120.346C78.2896 120.273 78.2957 120.2 78.2991 120.129C78.3491 119.043 78.3876 118.189 78.4099 117.68C78.4099 117.656 78.4099 117.633 78.4099 117.612C78.4099 117.591 78.4099 117.568 78.4099 117.545V117.514C78.4099 117.474 78.4146 117.437 78.4153 117.402L78.42 117.288C78.42 117.276 78.42 117.266 78.42 117.256L78.4241 117.156C78.4707 117.06 84.5112 104.791 87.1153 104.841C87.5842 104.85 88.3585 104.889 89.318 104.951C92.3761 105.147 97.3038 105.565 100.124 105.925C101.34 106.081 102.167 106.226 102.28 106.337C102.744 106.785 104.448 112.916 104.448 112.916Z" fill="#2D1218"/>
<path id="Vector_86" d="M84.7056 111.433C84.7056 111.433 88.4738 112.726 92.4184 112.629C96.363 112.531 101.569 111.012 101.569 111.012C101.569 111.012 96.0684 106.552 94.1948 106.841C92.3211 107.129 87.3562 108.264 86.2495 108.975C85.1427 109.687 84.7056 111.433 84.7056 111.433Z" fill="#1E060C"/>
<path id="Vector_87" opacity="0.75" d="M91.4979 50.2927C91.4979 50.2927 96.3371 50.1724 96.354 58.4008C96.354 58.4008 96.0837 59.3515 96.9479 61.0826C97.8121 62.8137 96.7452 68.8177 91.6648 69.611C88.6614 70.084 83.7141 67.7921 81.8972 63.4481C81.8972 63.4481 79.0485 61.5488 79.7566 58.8589C80.4648 56.1691 91.4979 50.2927 91.4979 50.2927Z" fill="#4C2409"/>
<path id="Vector_88" d="M86.0654 57.265C86.0654 57.265 84.3519 58.517 85.3451 62.5082C85.3451 62.5082 83.187 60.915 82.8971 58.0373C82.6073 55.1596 86.0654 57.265 86.0654 57.265Z" fill="black"/>
<path id="Vector_89" d="M93.8622 51.215C93.8622 51.215 91.6696 49.2177 89.975 53.1251C89.5775 54.0594 89.0483 54.932 88.4034 55.7163C86.6338 57.8623 84.2101 58.9528 81.6669 59.3312C81.6669 59.3312 80.9453 59.4663 80.6703 60.1116C80.6588 60.1359 80.6491 60.1609 80.6412 60.1866C80.4304 60.7859 80.5946 61.7886 81.9 63.444C81.9 63.444 82.6176 65.0603 83.4439 65.867C83.4439 65.867 84.5926 66.7711 83.0932 67.2704C81.5939 67.7697 82.2513 64.2609 81.1378 63.844C80.5101 63.6089 78.6493 62.4326 77.7257 60.7359C77.0101 59.4197 76.8561 57.7906 78.2743 56.0447C80.1236 53.771 81.1209 49.192 85.0912 47.1731C91.9514 43.6852 94.7095 49.5055 93.8622 51.215Z" fill="black"/>
<path id="Vector_90" d="M93.8619 51.215C93.8619 51.215 91.6694 49.2177 89.9748 53.1251C89.5773 54.0594 89.048 54.932 88.4032 55.7163L88.3984 55.7217C90.4349 51.9379 90.1079 50.1096 91.3363 48.79C92.5647 47.4704 93.8619 51.215 93.8619 51.215Z" fill="black"/>
<path id="Vector_91" d="M83.8586 66.4846C83.8561 66.4784 83.8532 66.4723 83.8499 66.4664C83.822 66.3493 83.77 66.2393 83.6972 66.1434C82.8134 64.2319 83.0033 63.6995 83.0033 63.6995C82.9326 63.6976 82.8622 63.6908 82.7924 63.6792C82.5037 63.6272 82.2288 63.5164 81.9847 63.3537C81.7406 63.191 81.5326 62.9798 81.3735 62.7333C80.5519 61.4981 80.4593 60.7015 80.6377 60.1948C80.5026 60.4887 79.8728 61.4569 77.7222 60.7441C78.6458 62.4407 80.5066 63.6171 81.1343 63.8522C82.2478 64.2691 81.5891 67.7772 83.0897 67.2786C83.7546 67.0576 83.9005 66.7569 83.8539 66.4907L83.8586 66.4846Z" fill="black"/>
<path id="Vector_92" d="M100.631 109.848C99.8545 110.883 95.8132 111.594 95.8132 111.594C94.9078 110.333 93.4524 109.072 93.2585 108.943C93.0646 108.814 91.8355 112.014 91.8355 112.014C89.1524 111.724 84.7544 110.656 84.7544 110.656C84.7544 110.656 84.2051 77.061 84.7544 79.5833C84.8895 80.1995 85.3726 81.4036 86.0281 82.8732C88.0551 87.4198 91.7213 94.5009 91.7213 94.5009C92.8189 90.4844 93.6745 86.4057 94.2835 82.2867C94.922 78.015 95.1186 74.9826 95.1578 74.2758C95.1639 74.1718 95.1666 74.1177 95.1666 74.1177C95.1666 74.1177 95.1808 74.1961 95.2072 74.3461C95.745 77.3427 101.371 108.862 100.631 109.848Z" fill="#3F2A2A"/>
<path id="Vector_93" opacity="0.52" d="M100.631 109.848C99.8549 110.883 95.8137 111.594 95.8137 111.594C94.9083 110.333 93.4529 109.072 93.259 108.943C93.065 108.814 91.836 112.014 91.836 112.014C89.1528 111.724 84.7549 110.656 84.7549 110.656C84.7549 110.656 84.8684 82.1617 84.7549 79.5833C84.6542 77.286 84.6731 73.6826 85.1461 72.7921L89.3792 74.6758C87.1643 75.5407 86.4062 76.4326 86.3231 78.8394C86.0157 88.013 87.9001 105.205 89.3968 105.871C92.4508 107.229 97.9779 105.383 97.4955 102.232C97.2096 100.377 95.5711 87.7833 94.2779 79.7927C93.3745 74.2123 89.3792 74.6758 89.3792 74.6758C89.3792 74.6758 93.9894 72.6407 95.1583 74.2758C95.1752 74.2995 95.1921 74.3225 95.2076 74.3434C95.7455 77.3427 101.371 108.862 100.631 109.848Z" fill="#2D1218"/>
<path id="Vector_94" d="M86.4154 72.4042C86.4154 72.4042 88.1823 73.9076 89.3789 74.6758C89.3789 74.6758 90.964 72.4333 91.4323 71.7562L94.4877 72.7603L95.4249 77.2873C95.4249 77.2873 93.7438 73.6731 89.3789 74.6758C89.3789 74.6758 86.5316 74.2475 84.4951 77.2873L85.4661 72.6927L86.4154 72.4042Z" fill="white"/>
<path id="Vector_95" d="M118.205 94.5009L116.12 103.88L115.39 102.89L103.459 86.6151C103.459 86.6151 102.925 98.6928 102.876 100.011C102.828 101.329 107.532 117.9 107.532 117.9C106.077 118.966 102.149 119.306 102.149 119.306C102.149 119.306 101.518 117.56 99.481 109.412C97.4439 101.264 97.783 103.009 96.6195 89.5745C95.456 76.14 92.6405 72.1535 92.6405 72.1535C92.5411 71.9961 93.0952 72.1137 94.8898 72.6799C96.6844 73.2461 100.403 73.1806 102.101 74.0049C103.799 74.8292 105.641 77.3515 107.824 81.2799C108.843 83.1151 111.109 86.9407 113.304 89.6225C115.811 92.6826 118.205 94.5009 118.205 94.5009Z" fill="#3E2928"/>
<path id="Vector_96" d="M84.7547 121.583C84.7547 121.583 78.0939 122.358 76.2837 120.742C76.2837 120.742 77.577 112.077 77.9641 105.157C78.3513 98.2374 78.0317 89.5718 78.0317 89.5718C78.0317 89.5718 74.4749 99.4665 71.8885 99.6604C69.5824 99.8327 67.9959 97.3171 66.6709 92.4016C66.5087 91.8029 66.3511 91.1687 66.1979 90.4989C64.7749 84.3333 64.1938 79.6765 64.1938 79.6765C64.1938 79.6765 65.0661 80.1779 66.3763 79.7252C67.6864 79.2725 69.8844 77.8333 69.8844 77.8333C69.8844 77.8333 70.6607 78.5448 71.954 84.7853C71.954 84.7853 74.2175 76.5238 75.7209 75.8448C77.2243 75.1657 85.4696 72.6927 85.4696 72.6927C85.4696 72.6927 86.1162 94.1475 86.2452 100.008C86.3743 105.868 84.7547 121.583 84.7547 121.583Z" fill="#3E2928"/>
<path id="Vector_97" d="M78.0288 89.5745C78.0288 89.5745 74.472 99.4692 71.8855 99.6631C69.5795 99.8354 67.993 97.3198 66.668 92.4043C66.668 92.4043 69.2666 99.9475 72.8072 96.8009C76.3477 93.6543 77.9964 85.5002 77.9964 85.5002L78.0288 89.5745Z" fill="#2D1218"/>
<path id="Vector_98" d="M71.9507 84.7887C71.9507 84.7887 73.373 89.2833 72.8237 93.3576C72.8237 93.3576 73.0358 93.8408 73.4703 92.161C73.9554 90.2853 73.3298 84.2556 72.123 84.1819L71.9507 84.7887Z" fill="#2D1218"/>
<path id="Vector_99" d="M115.39 100.535V102.89L103.459 86.6151C103.459 86.6151 103.151 83.6894 103.734 83.9482C104.316 84.207 115.39 100.535 115.39 100.535Z" fill="#2D1218"/>
<path id="Vector_100" d="M91.7217 94.5009L93.2589 108.943L93.5778 109.204L91.9602 93.6212L91.7217 94.5009Z" fill="#1E060C"/>
<path id="Vector_101" d="M92.5778 118.35C91.6122 119.646 88.0906 130.715 86.8406 140.887C85.5906 151.059 82.5838 163.624 82.1838 168.46C80.8756 168.636 79.5531 168.681 78.2358 168.595C78.2358 168.595 82.6541 152.461 84.3994 141.391C86.1446 130.321 89.3994 120.528 90.5602 119.123C91.721 117.719 92.3048 118.185 92.5778 118.35Z" fill="#2D1218"/>
<path id="Vector_102" d="M93.1357 72.7177C93.1357 72.7177 93.0006 72.4353 93.2756 72.4914C93.5506 72.5475 94.4243 72.3921 95.7925 73.3542C97.1608 74.3164 99.7993 80.2657 99.6912 80.3948C99.5831 80.5238 98.1608 81.7529 98.2682 81.9036C98.3756 82.0542 99.7878 83.1455 99.8094 83.4468C99.831 83.7482 97.1743 96.0935 97.1743 96.0935C97.1743 96.0935 96.3675 80.9745 93.1357 72.7177Z" fill="#2D1218"/>
<path id="Vector_103" d="M92.6422 72.1536C92.6422 72.1536 92.507 71.8711 92.7814 71.9279C93.0557 71.9846 93.93 71.8286 95.2989 72.7901C96.6678 73.7515 99.305 79.7015 99.1976 79.8306C99.0901 79.9597 97.3732 81.3076 97.478 81.4583C97.5827 81.609 99.2935 82.5813 99.3151 82.8833C99.3368 83.1853 97.1138 95.3536 97.1138 95.3536C97.1138 95.3536 95.8733 80.407 92.6422 72.1536Z" fill="#45302D"/>
<path id="Vector_104" d="M85.1873 72.9779L86.144 96.0104C86.144 96.0104 81.4684 83.9157 81.8873 83.4218C82.5792 82.6036 83.8467 81.1745 83.5042 81.1245C83.1616 81.0745 81.1758 80.7407 81.1758 80.7407C81.1758 80.7407 83.9136 73.2137 84.1082 73.1272C84.3028 73.0407 85.1758 72.7191 85.1873 72.9779Z" fill="#2D1218"/>
<path id="Vector_105" d="M85.466 72.6961L86.1417 95.3536C86.1417 95.3536 82.2228 83.7016 82.643 83.2043C83.3342 82.386 84.1248 80.8921 83.7856 80.8441C83.4464 80.7961 81.4565 80.4603 81.4565 80.4603C81.4565 80.4603 84.1951 72.9326 84.389 72.8468C84.5829 72.761 85.4572 72.4367 85.466 72.6961Z" fill="#45302D"/>
<path id="Vector_106" d="M131.938 73.2603C131.938 73.2603 137.132 70.786 137.199 73.2603C137.265 75.7346 137.072 82.8488 136.102 83.3657C135.132 83.8826 126.382 86.5347 126.7 85.6292C127.018 84.7238 126.254 74.7596 127.589 74.1481C128.924 73.5366 131.938 73.2603 131.938 73.2603Z" fill="#DBDBDB"/>
<path id="Vector_107" d="M133.393 118.35C132.428 117.07 130.894 144.18 131.123 149.363C131.352 154.546 130.327 166.863 130.327 166.863C129.408 167.166 128.454 167.351 127.489 167.414C127.489 167.414 129.416 146.371 129.359 140.985C129.302 135.6 130.495 119.595 131.518 118C132.529 116.428 133.371 118.297 133.393 118.35Z" fill="#1C2426"/>
<path id="Vector_108" opacity="0.75" d="M134.199 67.5931C134.138 68.1176 134.144 68.6459 134.216 69.1694C134.342 70.1203 134.56 71.0612 134.867 71.9829C134.867 71.9829 133.646 74.4873 132.076 74.8077C130.847 75.0608 129.142 73.1778 129.399 73.0168C129.78 72.7772 129.54 71.0682 129.326 69.9061C129.212 69.2846 129.105 68.8191 129.105 68.8191C129.105 68.8191 134.444 65.8282 134.199 67.5931Z" fill="#4C2409"/>
<path id="Vector_109" opacity="0.75" d="M139.778 60.1022C138.847 61.6103 137.658 61.3725 137.658 61.3725C137.658 61.3725 137.463 63.2772 136.476 64.838C135.489 66.3988 133.757 68.2786 129.704 68.8921C128.202 69.1198 126.976 68.7928 126.036 68.2211C124.441 67.2502 123.665 65.5738 123.745 64.7076C123.872 63.3346 123.191 60.4427 122.096 56.0333C121.002 51.6238 123.166 50.6211 123.166 50.6211C123.166 50.6211 128.848 49.8163 131.68 49.4285L132.205 49.3569C134.778 49.0069 137.054 56.3664 138.327 56.2765C139.601 56.1866 140.71 58.5921 139.778 60.1022Z" fill="#4C2409"/>
<path id="Vector_110" d="M131.762 50.1677C131.762 50.1677 130.98 51.6602 128.549 51.2345C126.117 50.8089 124.195 52.1264 121.902 54.0555C119.609 55.9846 120.478 46.2947 124.149 45.6474C127.819 45.0001 130.878 47.6325 131.762 50.1677Z" fill="black"/>
<path id="Vector_111" d="M131.387 50.617C131.387 50.617 130.306 51.3197 128.472 49.8738C126.637 48.4278 123.171 50.192 121.085 52.4589C121.085 52.4589 121.053 47.4049 122.803 46.1616C124.554 44.9184 127.147 44.067 128.976 45.9076C130.805 47.7481 131.762 50.1643 131.762 50.1643L131.387 50.617Z" fill="black"/>
<path id="Vector_112" d="M131.762 50.1677C131.641 49.9055 121.918 42.7501 119.52 53.311C119.52 53.311 119.781 47.6427 122.523 46.1961C125.265 44.7494 128.218 44.2305 129.408 45.9076C130.598 47.5846 132.512 49.7157 132.507 50.4278C132.501 51.14 131.762 50.1677 131.762 50.1677Z" fill="black"/>
<path id="Vector_113" d="M133.708 47.5582C134.482 50.5913 131.762 50.1677 131.762 50.1677C131.762 50.1677 131.627 50.0184 131.392 49.7765C130.658 49.0271 128.928 47.3839 127.072 46.4974C125.599 45.794 124.047 45.569 122.849 46.6447C119.986 49.2197 125.784 53.7447 122.605 59.2123C122.191 59.9114 121.693 60.5578 121.123 61.1373C121.123 61.0697 121.174 58.3758 118.928 54.9508C116.653 51.4819 120.425 45.319 124.715 44.6474C127.443 44.221 130.026 44.2859 131.743 45.1697C132.189 45.3927 132.591 45.6967 132.927 46.0663C133.305 46.4928 133.573 47.0048 133.708 47.5582Z" fill="black"/>
<path id="Vector_114" d="M134.032 47.6319C134.806 50.665 131.762 50.1677 131.762 50.1677C131.762 50.1677 131.614 49.6812 131.462 49.0819C131.098 47.4373 132.118 46.5231 132.927 46.0697C133.291 46.4792 133.883 47.0454 134.032 47.6319Z" fill="black"/>
<path id="Vector_115" d="M139.817 53.4846C139.717 53.9826 139.611 54.4001 139.507 54.7488C139.136 55.9832 138.782 56.3528 138.782 56.3528C136.914 56.3988 137.56 58.6049 137.56 58.6049C137.56 58.6049 136.832 58.1245 135.93 57.4022C134.488 56.2461 132.602 54.4684 132.54 53.042C132.439 50.7224 131.958 51.4447 131.762 50.1684C131.566 48.892 132.363 48.2866 132.363 48.2866C132.363 48.2866 133.181 47.4346 135.087 47.2359C137.648 46.9684 140.269 51.2244 139.817 53.4846Z" fill="black"/>
<path id="Vector_116" d="M139.507 54.7488C139.137 55.9832 138.782 56.3528 138.782 56.3528C136.914 56.3988 137.56 58.6049 137.56 58.6049C137.56 58.6049 136.833 58.1245 135.931 57.4022C134.693 54.3467 139.507 54.7488 139.507 54.7488Z" fill="black"/>
<path id="Vector_117" d="M127.071 46.4961C125.598 45.7927 124.046 45.5677 122.848 46.6434C119.985 49.2184 125.783 53.7434 122.604 59.211C124.463 55.6623 120.046 48.9907 122.239 46.6873C124.403 44.4163 127.004 46.4427 127.071 46.4961Z" fill="black"/>
<path id="Vector_118" d="M125.344 59.4792C125.306 59.4007 125.241 59.3381 125.161 59.3026C125.081 59.267 124.991 59.2606 124.907 59.2846C124.725 59.3427 124.552 59.567 124.665 60.2664C124.84 61.3414 125.525 60.8069 125.505 60.1745C125.504 59.9337 125.449 59.6961 125.344 59.4792Z" fill="black"/>
<path id="Vector_119" d="M130.079 58.5913C130.041 58.5129 129.976 58.4505 129.896 58.415C129.817 58.3794 129.727 58.3729 129.643 58.3967C129.46 58.4549 129.288 58.6792 129.401 59.3785C129.575 60.4535 130.261 59.919 130.24 59.2866C130.239 59.0458 130.184 58.8082 130.079 58.5913Z" fill="black"/>
<path id="Vector_120" d="M127.13 59.5555C127.13 59.5555 126.222 62.7853 126.657 63.1319C127.092 63.4785 128.427 63.1481 128.427 63.1481C128.427 63.1481 127.247 63.3035 127.051 62.4826C126.855 61.6616 127.13 59.5555 127.13 59.5555Z" fill="white"/>
<path id="Vector_121" d="M123.16 58.2867C123.296 58.0776 123.46 57.8886 123.648 57.7252C123.834 57.5593 124.038 57.4147 124.256 57.2941C124.478 57.1695 124.717 57.0801 124.966 57.0292C125.093 57.0048 125.223 56.9968 125.352 57.0056C125.48 57.0133 125.606 57.0481 125.72 57.1076C125.486 57.1306 125.258 57.1904 125.044 57.2846C124.831 57.3754 124.624 57.4773 124.422 57.59C124.22 57.7029 124.017 57.8204 123.807 57.9394C123.598 58.0583 123.384 58.1772 123.16 58.2867Z" fill="white"/>
<path id="Vector_122" d="M128.812 56.6501C128.962 56.4413 129.161 56.273 129.392 56.1602C129.622 56.0417 129.87 55.9635 130.126 55.9291C130.189 55.921 130.254 55.9183 130.317 55.9129L130.414 55.9082H130.51C130.574 55.9123 130.638 55.9129 130.702 55.9197C130.765 55.9264 130.828 55.9393 130.89 55.9508L130.984 55.9683L131.076 55.9947C131.137 56.0129 131.197 56.0319 131.257 56.0521C131.316 56.0744 131.374 56.1003 131.43 56.1298C131.487 56.1575 131.542 56.1866 131.596 56.219C131.468 56.2264 131.346 56.219 131.225 56.215C131.164 56.215 131.104 56.215 131.044 56.215H130.955H130.866C130.807 56.215 130.749 56.215 130.69 56.215L130.515 56.2258C130.486 56.2258 130.458 56.2258 130.429 56.2298L130.342 56.24C130.285 56.2467 130.228 56.2501 130.17 56.2589C129.942 56.2898 129.716 56.337 129.494 56.4001C129.261 56.4665 129.033 56.5501 128.812 56.6501Z" fill="white"/>
<path id="Vector_123" d="M130.93 63.0082C130.93 63.0082 129.66 65.3914 126.694 65.6218C126.694 65.6218 129.076 65.1589 130.93 63.0082Z" fill="white"/>
<path id="Vector_124" d="M124.898 59.8596C124.984 59.8596 125.054 59.79 125.054 59.7042C125.054 59.6183 124.984 59.5488 124.898 59.5488C124.812 59.5488 124.743 59.6183 124.743 59.7042C124.743 59.79 124.812 59.8596 124.898 59.8596Z" fill="white"/>
<path id="Vector_125" d="M129.664 59.0468C129.75 59.0468 129.819 58.9772 129.819 58.8914C129.819 58.8055 129.75 58.736 129.664 58.736C129.578 58.736 129.508 58.8055 129.508 58.8914C129.508 58.9772 129.578 59.0468 129.664 59.0468Z" fill="white"/>
<path id="Vector_126" d="M129.543 70.8468C129.543 70.8468 130.036 72.0143 131.938 73.2603C132.959 72.368 133.849 71.3357 134.581 70.1941C134.581 70.1941 134.751 69.9177 134.961 70.2562C135.171 70.5947 137.363 71.1772 137.363 71.1772C137.363 71.1772 135.617 74.2812 135.035 75.7042C135.035 75.7042 133.076 73.4556 131.938 73.2616C131.938 73.2616 130.892 73.5056 128.794 75.7042L127.286 72.0285C127.286 72.0285 128.928 71.317 129.141 70.9508C129.355 70.5846 129.543 70.8468 129.543 70.8468Z" fill="white"/>
<path id="Vector_127" d="M128.242 71.5698C128.242 71.5698 124.51 72.1941 122.797 73.2779C121.083 74.3617 117.864 75.0454 117.65 78.7313C117.436 82.4171 116.704 90.9806 115.441 97.8198C114.177 104.659 113.306 115.765 113.306 115.765C113.306 115.765 116.12 116.542 117.866 115.765L117.779 117.231C117.779 117.231 123.47 117.684 125.82 117.231L128.242 71.5698Z" fill="#2B363C"/>
<path id="Vector_128" d="M128.611 71.1644L127.237 90.5016C127.237 90.5016 124.559 84.0935 124.656 83.3657C124.752 82.638 126.111 81.4151 125.674 80.8326C125.238 80.2502 123.831 79.1434 124.12 78.3218C124.41 77.5002 126.939 71.6326 127.176 71.5698C127.413 71.5069 128.611 71.1644 128.611 71.1644Z" fill="#3D4F53"/>
<path id="Vector_129" d="M136.189 70.8454L134.679 115.959C134.679 115.959 137.202 116.541 141.276 115.959C145.35 115.377 149.747 114.601 149.747 114.601C149.747 114.601 147.096 99.436 146.74 94.6833C146.74 94.6833 155.923 90.5765 156.764 89.413C157.604 88.2495 155.47 84.6603 153.143 81.7819C150.815 78.9035 145.318 70.742 142.02 70.8461C138.722 70.9501 136.189 70.8454 136.189 70.8454Z" fill="#2B363C"/>
<path id="Vector_130" d="M131.251 74.7326C131.187 74.8299 129.486 82.7441 129.99 87.6914C130.494 92.6387 132.687 83.2205 132.687 83.2205L132.324 74.7326H131.251Z" fill="#EA004E"/>
<path id="Vector_131" d="M136.189 70.8454C136.189 70.8454 136.146 70.3677 136.361 70.3245C136.577 70.2813 137.676 70.1948 137.773 70.3245C137.871 70.4542 140.252 76.263 140.273 76.9529C140.295 77.6428 137.883 79.9711 138.229 80.5043C138.576 81.0374 135.602 88.4097 135.602 88.4097L136.189 70.8454Z" fill="#3D4F53"/>
<path id="Vector_132" d="M139.603 77.6718L121.394 85.4236L131.599 109.395L149.808 101.643L139.603 77.6718Z" fill="white"/>
<path id="Vector_133" d="M127.155 90.3414L139.138 85.2407" stroke="#B9C9BC" stroke-width="4" stroke-miterlimit="10"/>
<path id="Vector_134" d="M127.006 92.7664L140.987 86.8144" stroke="#B9C9BC" stroke-width="4" stroke-miterlimit="10"/>
<path id="Vector_135" d="M126.581 91.7671L140.562 85.8144" stroke="#B9C9BC" stroke-width="4" stroke-miterlimit="10"/>
<path id="Vector_136" d="M127.813 94.6617L141.795 88.7097" stroke="#B9C9BC" stroke-width="4" stroke-miterlimit="10"/>
<path id="Vector_137" d="M127.387 93.6624L141.369 87.7103" stroke="#B9C9BC" stroke-width="4" stroke-miterlimit="10"/>
<path id="Vector_138" d="M128.199 95.5421L142.181 89.5901" stroke="#B9C9BC" stroke-width="4" stroke-miterlimit="10"/>
<path id="Vector_139" d="M129.007 97.438L142.988 91.4853" stroke="#B9C9BC" stroke-width="4" stroke-miterlimit="10"/>
<path id="Vector_140" d="M128.581 96.4381L142.562 90.486" stroke="#B9C9BC" stroke-width="4" stroke-miterlimit="10"/>
<path id="Vector_141" d="M125.67 86.7962C126.013 86.6502 126.464 86.6793 126.716 87.0941L126.3 87.2712C126.169 87.1286 126.012 87.1063 125.834 87.1813C125.586 87.2874 125.502 87.5435 125.619 87.8178C125.723 88.061 125.974 88.2056 126.227 88.1009C126.407 88.0245 126.513 87.8732 126.482 87.6772L126.898 87.5002C127.033 87.9941 126.743 88.3367 126.391 88.4867C125.971 88.6678 125.425 88.5651 125.183 88.0036C124.941 87.4421 125.25 86.9752 125.67 86.7962Z" fill="black"/>
<path id="Vector_142" d="M127.038 87.2164C126.551 86.0725 128.248 85.3495 128.735 86.4935C129.222 87.6374 127.526 88.3624 127.038 87.2164ZM128.303 86.6759C128.049 86.0799 127.222 86.4333 127.473 87.0293C127.724 87.6252 128.558 87.2786 128.303 86.6779V86.6759Z" fill="black"/>
<path id="Vector_143" d="M129.497 86.1833L129.843 86.9941L129.405 87.1799L128.701 85.5211L128.854 85.4536L130.039 85.9151L129.694 85.1043L130.127 84.9205L130.832 86.5772L130.681 86.6448L129.497 86.1833Z" fill="black"/>
<path id="Vector_144" d="M130.543 85.1907L130.382 84.813L131.611 84.2894L131.772 84.6678L131.366 84.8401L131.907 86.1164L131.489 86.2941L130.948 85.0178L130.543 85.1907Z" fill="black"/>
<path id="Vector_145" d="M133.948 85.1765L133.975 85.238L133.502 85.4407L133.011 85.0745L132.791 85.1678L132.998 85.6549L132.575 85.8347L131.871 84.1799L132.597 83.8711C133.247 83.5968 133.699 84.3293 133.401 84.7907L133.948 85.1765ZM132.755 84.2482C132.654 84.288 132.552 84.3347 132.452 84.3772L132.629 84.7907L132.931 84.6617C133.16 84.5644 132.999 84.1502 132.755 84.2482Z" fill="black"/>
<path id="Vector_146" d="M135.172 84.4826L134.519 84.7604L134.511 85.0097L134.098 85.1853L134.071 85.1239L134.129 83.1928L134.31 83.1151L135.745 84.4117L135.771 84.4732L135.357 84.6495L135.172 84.4826ZM134.504 83.8259V84.3401L134.883 84.1793L134.504 83.8259Z" fill="black"/>
<path id="Vector_147" d="M135.987 82.4043C136.33 82.2583 136.781 82.2867 137.033 82.7016L136.616 82.8786C136.486 82.736 136.329 82.7137 136.152 82.7894C135.903 82.8948 135.82 83.1516 135.936 83.4252C136.04 83.6691 136.291 83.813 136.544 83.709C136.724 83.6326 136.83 83.4813 136.799 83.2847L137.215 83.1076C137.35 83.6022 137.06 83.9441 136.708 84.0941C136.288 84.2759 135.742 84.1732 135.5 83.6117C135.258 83.0502 135.566 82.5833 135.987 82.4043Z" fill="black"/>
<path id="Vector_148" d="M137.101 82.3988L136.94 82.0205L138.169 81.4975L138.33 81.8752L137.925 82.0475L138.465 83.3239L138.047 83.5022L137.507 82.2259L137.101 82.3988Z" fill="black"/>
<g id="Group_4" opacity="0.62">
<path id="Vector_149" opacity="0.62" d="M142.973 100.729C143.01 101.214 142.903 101.699 142.664 102.123C142.425 102.547 142.066 102.89 141.633 103.11C141.199 103.33 140.71 103.416 140.227 103.357C139.744 103.299 139.289 103.099 138.92 102.782C138.551 102.465 138.285 102.046 138.154 101.577C138.024 101.109 138.035 100.612 138.187 100.15C138.338 99.6879 138.624 99.2813 139.007 98.9815C139.39 98.6817 139.853 98.5022 140.338 98.4658C140.987 98.4177 141.629 98.6289 142.123 99.0532C142.617 99.4774 142.923 100.08 142.973 100.729ZM138.176 101.096C138.211 101.559 138.383 102.002 138.67 102.368C138.958 102.734 139.347 103.007 139.789 103.152C140.231 103.296 140.706 103.307 141.154 103.182C141.602 103.056 142.003 102.801 142.306 102.448C142.609 102.095 142.8 101.66 142.856 101.198C142.912 100.736 142.829 100.269 142.619 99.8535C142.409 99.4386 142.08 99.0952 141.675 98.867C141.27 98.6387 140.806 98.5358 140.342 98.5712C139.72 98.6195 139.143 98.9124 138.737 99.3857C138.332 99.8589 138.13 100.474 138.177 101.096H138.176Z" fill="#CA2722"/>
<path id="Vector_150" opacity="0.62" d="M142.642 100.754C142.676 101.178 142.582 101.601 142.372 101.971L142.273 101.914C142.474 101.558 142.563 101.149 142.527 100.742C142.491 100.335 142.331 99.9478 142.07 99.6333L142.158 99.5604C142.44 99.8981 142.609 100.316 142.642 100.754Z" fill="#CA2722"/>
<path id="Vector_151" opacity="0.62" d="M138.976 102.202L138.888 102.276C138.612 101.944 138.443 101.535 138.405 101.104C138.367 100.674 138.461 100.242 138.675 99.8658L138.774 99.9219C138.572 100.278 138.483 100.686 138.52 101.094C138.556 101.501 138.715 101.888 138.977 102.202H138.976Z" fill="#CA2722"/>
<path id="Vector_152" opacity="0.62" d="M142.314 100.759C142.341 101.108 142.263 101.457 142.091 101.763C141.919 102.068 141.661 102.315 141.348 102.473C141.036 102.631 140.683 102.693 140.336 102.651C139.988 102.609 139.66 102.465 139.395 102.237C139.129 102.009 138.937 101.707 138.843 101.37C138.748 101.032 138.756 100.675 138.865 100.342C138.974 100.009 139.18 99.7158 139.455 99.4997C139.731 99.2835 140.064 99.1539 140.413 99.1272C140.882 99.092 141.345 99.2441 141.701 99.55C142.058 99.8559 142.278 100.291 142.314 100.759ZM138.896 101.02C138.921 101.347 139.042 101.658 139.244 101.916C139.447 102.174 139.721 102.366 140.032 102.468C140.344 102.57 140.678 102.577 140.994 102.489C141.309 102.401 141.592 102.221 141.805 101.972C142.018 101.724 142.153 101.418 142.193 101.092C142.232 100.767 142.174 100.437 142.026 100.145C141.878 99.8527 141.647 99.6109 141.361 99.45C141.076 99.2892 140.749 99.2166 140.422 99.2414C139.984 99.2753 139.577 99.4815 139.291 99.8149C139.005 100.148 138.863 100.582 138.896 101.02Z" fill="#CA2722"/>
<path id="Vector_153" opacity="0.62" d="M141.797 100.374C141.689 100.122 141.51 99.9072 141.28 99.7573C141.051 99.6074 140.782 99.5288 140.508 99.5316C140.234 99.5343 139.967 99.6182 139.741 99.7728C139.515 99.9273 139.34 100.145 139.237 100.4C139.135 100.654 139.11 100.933 139.167 101.201C139.223 101.469 139.357 101.714 139.553 101.906C139.749 102.098 139.997 102.227 140.266 102.278C140.535 102.329 140.814 102.298 141.066 102.191C141.403 102.047 141.67 101.774 141.807 101.434C141.944 101.093 141.941 100.712 141.797 100.374ZM139.397 101.279C139.328 101.065 139.32 100.837 139.372 100.62C139.409 100.475 139.643 100.503 139.605 100.65C139.558 100.827 139.56 101.014 139.612 101.19C139.656 101.33 139.44 101.423 139.397 101.279ZM139.662 100.24C139.643 100.215 139.635 100.185 139.638 100.154C139.642 100.123 139.657 100.095 139.681 100.075C139.788 99.968 139.915 99.882 140.054 99.8218C140.189 99.7604 140.284 99.9766 140.146 100.037C140.027 100.091 139.918 100.166 139.826 100.259C139.802 100.278 139.771 100.287 139.74 100.284C139.709 100.28 139.681 100.264 139.662 100.24ZM140.426 102.084C140.173 102.063 139.933 101.962 139.741 101.797C139.626 101.698 139.766 101.51 139.881 101.608C140.042 101.75 140.244 101.835 140.458 101.853C140.606 101.864 140.576 102.097 140.426 102.084ZM141.289 101.8C141.195 101.879 141.091 101.944 140.978 101.993C140.84 102.054 140.748 101.838 140.887 101.777C140.979 101.736 141.066 101.682 141.143 101.616C141.258 101.515 141.404 101.702 141.289 101.8ZM141.441 100.712C141.4 100.523 141.302 100.351 141.161 100.218C141.02 100.086 140.842 99.9988 140.65 99.9691C140.501 99.9441 140.531 99.711 140.68 99.736C140.922 99.7738 141.147 99.8846 141.325 100.054C141.503 100.223 141.625 100.442 141.674 100.682C141.708 100.829 141.475 100.858 141.441 100.712Z" fill="#CA2722"/>
</g>
<path id="Vector_154" d="M146.666 98.457C146.483 98.8205 146.277 99.1786 145.995 99.4746C145.932 99.5437 145.86 99.605 145.783 99.657C145.67 99.7286 145.583 99.7475 145.482 99.6502C145.381 99.5529 145.374 99.3962 145.299 99.2658C145.288 99.2469 145.263 99.2158 145.237 99.2252C145.134 99.261 145.087 99.4097 145.041 99.5023C145.008 99.5698 144.978 99.6442 144.951 99.7165C144.932 99.5616 144.864 99.4169 144.756 99.3043C144.744 99.2935 144.722 99.284 144.71 99.3002C144.548 99.5225 144.464 99.8185 144.376 100.077C144.356 100.139 144.336 100.202 144.316 100.264C144.308 100.249 144.299 100.236 144.287 100.223C144.318 100.167 144.341 100.108 144.355 100.046C144.387 99.884 144.358 99.6597 144.223 99.5475C144.02 99.3813 143.849 99.6192 143.775 99.7942C143.755 99.8428 143.843 99.9813 143.871 99.911C143.899 99.8408 143.983 99.655 144.077 99.6556L144.263 99.7969C144.263 99.8279 144.263 99.859 144.263 99.8901C144.256 99.9553 144.237 100.018 144.206 100.076C144.182 100.124 144.152 100.17 144.116 100.211C144.102 100.221 144.088 100.233 144.075 100.245C144.072 100.248 144.07 100.251 144.069 100.255C144.057 100.264 144.044 100.271 144.03 100.277C143.883 100.33 143.834 100.104 143.827 99.9833C143.827 99.9556 143.745 99.8266 143.729 99.9002C143.713 99.99 143.69 100.079 143.662 100.165C143.623 100.27 143.56 100.471 143.464 100.54C143.423 100.57 143.368 100.594 143.322 100.526C143.314 100.486 143.311 100.445 143.314 100.405C143.318 100.295 143.313 100.186 143.3 100.077C143.294 100.043 143.266 99.961 143.217 99.9752C143.09 100.012 142.969 100.168 142.871 100.253C142.79 100.321 142.712 100.394 142.637 100.469C142.624 100.429 142.61 100.389 142.595 100.352C142.468 100.04 142.229 99.7239 142.205 99.3806C142.191 99.1928 142.284 99.057 142.419 98.9401C142.487 98.8793 142.708 98.7077 142.843 98.7286C142.86 98.7516 142.881 98.7658 142.897 98.755L142.912 98.7455C142.963 98.7124 142.906 98.6158 142.87 98.5935C142.731 98.507 142.493 98.6759 142.391 98.7543C142.242 98.8698 142.116 99.0178 142.103 99.2124C142.072 99.6928 142.433 100.091 142.57 100.539C142.541 100.569 142.513 100.6 142.485 100.633C142.272 100.874 142.094 101.145 141.955 101.435C141.878 101.604 141.81 101.854 141.943 102.017C142.076 102.181 142.275 102.052 142.396 101.932C142.725 101.605 142.783 101.092 142.685 100.648C142.762 100.569 142.842 100.494 142.925 100.421C143.013 100.331 143.108 100.247 143.207 100.169C143.207 100.379 143.189 100.693 143.36 100.77C143.545 100.852 143.687 100.5 143.765 100.246C143.793 100.353 143.847 100.448 143.951 100.467C143.998 100.473 144.045 100.466 144.087 100.448C144.13 100.429 144.167 100.399 144.195 100.362C144.23 100.346 144.256 100.362 144.277 100.4C144.22 100.592 144.17 100.787 144.129 100.984C144.062 101.245 144.028 101.514 144.026 101.783C144.031 101.885 144.026 102.064 144.117 102.135C144.342 102.313 144.445 101.129 144.445 101.001C144.443 100.822 144.423 100.643 144.387 100.467C144.421 100.354 144.454 100.24 144.496 100.129C144.557 99.9424 144.629 99.7592 144.712 99.5806C144.801 99.3955 144.833 99.6185 144.847 99.7232C144.866 99.8332 144.869 99.9455 144.855 100.056C144.846 100.106 144.938 100.241 144.951 100.173C144.977 100.029 145.019 99.8891 145.076 99.755C145.112 99.6671 145.172 99.4705 145.268 99.4023C145.322 99.5374 145.318 99.7016 145.435 99.8077C145.576 99.936 145.757 99.8833 145.896 99.782C146.292 99.4942 146.544 99.0056 146.759 98.5786C146.785 98.5266 146.701 98.3874 146.666 98.457ZM142.616 100.747C142.651 101.055 142.607 101.385 142.431 101.646C142.364 101.744 142.253 101.889 142.135 101.923C141.877 101.994 142.01 101.642 142.052 101.55C142.188 101.268 142.363 101.005 142.57 100.771C142.585 100.754 142.599 100.739 142.612 100.723C142.614 100.731 142.615 100.739 142.616 100.747ZM144.343 100.95C144.34 101.165 144.317 101.38 144.272 101.591C144.252 101.702 144.222 101.81 144.183 101.916C144.148 102.005 144.143 102.033 144.132 101.933C144.118 101.726 144.134 101.517 144.181 101.314C144.222 101.091 144.274 100.871 144.333 100.654C144.345 100.779 144.344 100.907 144.343 100.947V100.95Z" fill="#001D4F"/>
<path id="Vector_155" d="M143.064 99.6049C143.061 99.6559 143.076 99.7063 143.106 99.7476C143.136 99.7889 143.179 99.8185 143.229 99.8313C143.29 99.8543 143.256 99.7191 143.213 99.7029C143.189 99.6971 143.167 99.688 143.145 99.6759C143.15 99.6759 143.153 99.6597 143.155 99.6576C143.164 99.6409 143.172 99.6235 143.179 99.6056C143.204 99.5539 143.239 99.5079 143.283 99.4705C143.325 99.4394 143.262 99.3124 143.226 99.3353C143.14 99.402 143.083 99.4981 143.064 99.6049Z" fill="#001D4F"/>
<path id="Vector_156" opacity="0.75" d="M142.763 95.5881C142.763 95.5881 139.459 96.5043 137.201 98.4442C136.794 98.7877 136.425 99.1747 136.102 99.5982C134.049 102.33 133.757 102.346 133.37 102.166C132.982 101.985 135.247 98.98 135.253 98.7874C135.259 98.5949 131.575 102.457 131.058 102.036C130.541 101.615 134.356 98.0111 134.031 97.5617C133.706 97.1124 129.359 101.196 128.938 100.63C128.518 100.064 131.25 97.657 131.25 97.657C131.25 97.657 128.953 98.9834 128.502 98.8057C128.051 98.628 129.133 97.5442 130.433 96.6388C130.942 96.284 131.612 95.6793 132.238 95.0739C133.211 94.134 134.078 93.1955 134.078 93.1955C134.078 93.1955 134.207 93.0185 133.496 92.9698C132.94 92.9313 131.504 92.5381 130.82 91.9888C130.628 91.836 130.495 91.6705 130.457 91.4982C130.279 90.7063 131.071 91.0779 131.636 91.2232C132.202 91.3685 135.662 91.2394 136.374 91.7894C137.085 92.3394 138.685 92.7759 138.685 92.7759L140.699 94.1651L142.763 95.5881Z" fill="#4C2409"/>
<path id="Vector_157" d="M117.865 115.765L120.771 82.7191C120.771 82.7191 120.708 81.5873 119.996 83.5921C119.285 85.5968 118.044 113.429 114.509 116.004C114.511 116.004 116.421 116.412 117.865 115.765Z" fill="#1C2426"/>
<path id="Vector_158" d="M147.708 87.6914C147.708 87.6914 142.795 83.1239 141.098 81.2563L144.444 89.0685L147.708 87.6914Z" fill="#1C2426"/>
<path id="Vector_159" d="M147.708 87.6914C147.708 87.6914 150.216 86.4698 152.253 86.9549C152.253 86.9549 150.741 85.6374 147.253 87.2664L147.708 87.6914Z" fill="#1C2426"/>
<path id="Vector_160" d="M130.471 74.1502C130.471 74.1698 130.734 74.9178 130.971 75.0475C131.209 75.1772 131.985 75.1765 132.458 75.0475C132.931 74.9184 133.089 73.8617 133.089 73.8617C133.089 73.8617 132.892 73.1522 131.937 73.2623C130.982 73.3725 130.444 73.5313 130.471 74.1502Z" fill="#EA004E"/>
<path id="Vector_161" d="M139.433 91.9881L138.398 92.3218C138.398 92.3218 138.258 93.2678 138.915 94.9286C139.573 96.5894 140.047 96.9888 140.047 96.9888L141.944 96.2563L139.433 91.9881Z" fill="white"/>
<path id="Vector_162" d="M147.041 94.5482C147.041 94.5482 141.211 96.9678 141.082 96.9894C140.953 97.011 139.206 92.2043 139.336 91.8374C139.466 91.4705 145.199 88.7549 145.199 88.7549L147.041 94.5482Z" fill="#2B363C"/>
<path id="Vector_163" d="M95.019 58.8163C95.0415 58.7319 95.0929 58.658 95.1643 58.6075C95.2356 58.557 95.3224 58.5331 95.4096 58.54C95.5994 58.5616 95.815 58.7474 95.8386 59.4549C95.8791 60.5441 95.1014 60.1542 94.9981 59.5299C94.9522 59.2934 94.9593 59.0497 95.019 58.8163Z" fill="black"/>
<path id="Vector_164" d="M90.2022 58.8738C90.2247 58.7892 90.2761 58.7153 90.3474 58.6647C90.4187 58.614 90.5056 58.59 90.5928 58.5968C90.7826 58.6184 90.9982 58.8042 91.0225 59.5123C91.0624 60.6008 90.2846 60.2116 90.1813 59.5866C90.1353 59.3504 90.1424 59.1069 90.2022 58.8738Z" fill="black"/>
<path id="Vector_165" d="M93.2832 59.242C93.2832 59.242 94.8069 62.2319 94.4488 62.6562C94.0907 63.0805 92.7163 63.019 92.7163 63.019C92.7163 63.019 93.9042 62.9407 93.9325 62.0974C93.9609 61.2542 93.2832 59.242 93.2832 59.242Z" fill="white"/>
<path id="Vector_166" d="M96.9305 57.219C96.6872 57.1555 96.4575 57.0798 96.2318 57.0042C96.0062 56.9285 95.7825 56.8521 95.5602 56.7819C95.3403 56.7109 95.1168 56.6516 94.8906 56.6042C94.6607 56.5537 94.4242 56.54 94.1899 56.5636C94.2893 56.4834 94.4044 56.4249 94.5278 56.392C94.6526 56.3577 94.7814 56.34 94.9109 56.3393C95.165 56.34 95.4175 56.3808 95.6589 56.4602C95.8963 56.5357 96.1245 56.6375 96.3393 56.7636C96.557 56.8866 96.756 57.04 96.9305 57.219Z" fill="white"/>
<path id="Vector_167" d="M91.0656 56.7238C90.8304 56.6712 90.5918 56.6357 90.3514 56.6177C90.1208 56.5992 89.8891 56.5971 89.6582 56.6116C89.6008 56.6116 89.5434 56.6225 89.4859 56.6272L89.3994 56.6339C89.3704 56.6387 89.342 56.6441 89.3136 56.6475L89.14 56.6704C89.0825 56.6826 89.0251 56.6927 88.967 56.7029L88.8792 56.7164L88.792 56.7366C88.7339 56.7502 88.6751 56.7616 88.615 56.7731C88.4967 56.7988 88.3792 56.8312 88.2515 56.8495C88.2981 56.8069 88.3467 56.7677 88.3974 56.7292C88.4466 56.6894 88.4982 56.6528 88.5521 56.6197C88.6069 56.588 88.6616 56.5569 88.7177 56.5272L88.8028 56.4833L88.8913 56.4481C88.9501 56.4245 89.0102 56.4022 89.0704 56.3806C89.1305 56.3589 89.194 56.3481 89.2562 56.3319C89.2873 56.3238 89.3184 56.3177 89.3494 56.3103L89.4447 56.2961C89.5089 56.2887 89.5724 56.2785 89.6366 56.2745C89.8942 56.258 90.1527 56.2861 90.4008 56.3576C90.6492 56.4228 90.8777 56.5487 91.0656 56.7238Z" fill="white"/>
<path id="Vector_168" d="M90.2134 64.163C90.2134 64.163 91.9262 66.2502 94.8796 65.8955C94.8796 65.8955 92.4532 65.9069 90.2134 64.163Z" fill="white"/>
<path id="Vector_169" d="M95.5011 59.1049C95.5869 59.1049 95.6565 59.0353 95.6565 58.9495C95.6565 58.8636 95.5869 58.7941 95.5011 58.7941C95.4153 58.7941 95.3457 58.8636 95.3457 58.9495C95.3457 59.0353 95.4153 59.1049 95.5011 59.1049Z" fill="white"/>
<path id="Vector_170" d="M90.6691 59.2414C90.7549 59.2414 90.8245 59.1718 90.8245 59.0859C90.8245 59.0001 90.7549 58.9305 90.6691 58.9305C90.5832 58.9305 90.5137 59.0001 90.5137 59.0859C90.5137 59.1718 90.5832 59.2414 90.6691 59.2414Z" fill="white"/>
</g>
</g>
</g>
</svg>
